<svg width="140" height="40" viewBox="0 0 140 40" fill="none" xmlns="http://www.w3.org/2000/svg">
<path d="M140 29.0793V30.7789C139.965 30.8543 139.907 30.9253 139.898 31.0052C139.84 31.6442 139.552 32.1989 139.246 32.7403C138.948 33.2639 138.531 33.6899 138.065 34.076C137.706 34.3733 137.32 34.6262 136.912 34.8303C136.628 34.9723 136.326 35.0921 136.02 35.1986C135.7 35.3096 135.381 35.4028 135.057 35.4693C134.657 35.5536 134.267 35.6779 133.854 35.669C133.681 35.6646 133.508 35.7223 133.335 35.7489C133.299 35.7533 133.264 35.7666 133.233 35.7666C132.474 35.74 131.715 35.6956 130.956 35.6823C130.699 35.6779 130.451 35.6646 130.198 35.6113C129.865 35.5448 129.528 35.4826 129.19 35.4116C129.004 35.3761 128.813 35.3451 128.627 35.2874C128.347 35.1986 128.068 35.0877 127.788 34.9812C127.597 34.9102 127.402 34.8436 127.216 34.7593C126.998 34.6617 126.794 34.5463 126.585 34.4443C126.723 33.9783 126.852 33.5479 126.972 33.1174C127.069 32.7669 127.158 32.4163 127.251 32.0702C127.331 31.7684 127.424 31.4667 127.504 31.1649C127.548 30.983 127.602 30.9697 127.77 31.0673C128.032 31.2093 128.298 31.3469 128.573 31.4667C128.924 31.622 129.275 31.7818 129.638 31.8883C130.096 32.0214 130.566 32.1279 131.036 32.2078C131.768 32.3409 132.51 32.3764 133.251 32.2743C133.543 32.2344 133.823 32.1545 134.098 32.0347C134.387 31.906 134.64 31.7329 134.879 31.551C135.128 31.3602 135.239 31.054 135.332 30.7567C135.376 30.6058 135.412 30.4416 135.416 30.2774C135.452 29.4964 135.114 28.8974 134.462 28.4802C133.992 28.1829 133.508 27.9256 132.975 27.7481C132.363 27.5395 131.746 27.3265 131.161 27.0514C130.051 26.5322 128.999 25.9109 128.205 24.9436C127.837 24.4954 127.535 24.0072 127.353 23.4659C127.176 22.9289 127.109 22.3609 127.118 21.784C127.122 21.1229 127.295 20.4972 127.508 19.8892C127.642 19.512 127.881 19.1703 128.099 18.8287C128.605 18.021 129.323 17.422 130.158 16.9915C130.845 16.6365 131.587 16.3969 132.363 16.2771C132.829 16.2016 133.295 16.1218 133.77 16.0951C134.524 16.0508 135.274 16.1085 136.02 16.215C136.57 16.2904 137.107 16.3969 137.635 16.5566C138.008 16.6676 138.367 16.8185 138.731 16.956C138.922 17.027 139.108 17.1158 139.312 17.2045C138.984 18.3006 138.664 19.3745 138.336 20.4838C138.274 20.4705 138.203 20.4617 138.136 20.435C137.679 20.2487 137.231 20.0223 136.761 19.8759C136.281 19.7206 135.784 19.6318 135.283 19.5564C134.866 19.4987 134.458 19.4632 134.045 19.481C133.33 19.512 132.669 19.7028 132.163 20.2531C131.653 20.8122 131.6 21.469 131.826 22.1479C131.919 22.423 132.159 22.636 132.399 22.8269C132.887 23.2129 133.433 23.4792 134.005 23.7055C134.582 23.9362 135.172 24.1404 135.753 24.3755C136.592 24.7128 137.391 25.1211 138.096 25.6935C138.744 26.2171 139.277 26.8339 139.596 27.6105C139.774 28.0454 139.947 28.4891 139.947 28.9728C139.947 29.0083 139.982 29.0438 140 29.0793Z" fill="white"/>
<path d="M106.577 38.0029C106.559 38.0783 106.497 38.167 106.43 38.1981C106.275 38.2735 106.12 38.3357 105.951 38.3845C105.454 38.5176 104.944 38.5886 104.442 38.6818C104.083 38.7528 103.71 38.7528 103.346 38.7927C103.124 38.8194 102.902 38.8637 102.681 38.8904C102.543 38.9037 102.405 38.8859 102.268 38.8904C101.247 38.9347 100.231 38.9835 99.2149 39.0279C98.9309 39.0412 98.6469 39.0457 98.3629 39.059C98.3185 39.059 98.2741 39.0945 98.2298 39.1122H92.8559C92.7938 39.0945 92.7317 39.059 92.6695 39.0546C91.6179 39.0191 90.5662 38.9969 89.51 38.948C88.8577 38.9125 88.2054 38.8327 87.5531 38.775C87.1937 38.7439 86.8298 38.735 86.4748 38.6818C86.1775 38.6374 85.8757 38.6197 85.5917 38.5043C85.4364 38.4422 85.2545 38.4333 85.0858 38.4155C84.8506 38.3889 84.6865 38.2159 84.4779 38.136C84.3758 38.096 84.3847 37.9185 84.4868 37.8387C84.5489 37.7899 84.6332 37.7499 84.7131 37.7277C85.1169 37.6212 85.5252 37.5014 85.9378 37.4304C86.5325 37.3328 87.136 37.2529 87.7395 37.2041C88.7734 37.1154 89.8074 37.0444 90.8413 36.9867C92.7982 36.8757 94.7552 36.8447 96.7166 36.8802C98.212 36.9068 99.7074 36.9778 101.203 37.0444C101.895 37.0754 102.583 37.1242 103.266 37.2085C103.759 37.2662 104.256 37.3106 104.744 37.3949C105.157 37.4659 105.569 37.528 105.978 37.6301C106.129 37.6656 106.275 37.7277 106.417 37.7899C106.51 37.8254 106.608 37.8875 106.577 37.9984V38.0029Z" fill="white"/>
<path d="M46.2486 13.8141C46.1599 13.2683 46.049 12.7314 45.8936 12.2033C45.7428 11.6886 45.5475 11.1871 45.3478 10.6901C45.0993 10.0733 44.7931 9.48313 44.4514 8.91513C44.0964 8.32051 43.6882 7.74363 43.2311 7.22C42.7208 6.63869 42.1572 6.10175 41.536 5.63137C40.4488 4.81931 39.2551 4.20249 37.9771 3.76318C37.0408 3.44368 36.0779 3.24399 35.0972 3.10643C33.8857 2.9378 32.6787 2.99105 31.4806 3.20405C30.8283 3.31499 30.1893 3.47918 29.568 3.70993C29.0888 3.89187 28.6095 4.07824 28.1436 4.29124C27.3626 4.64624 26.6393 5.10774 25.9426 5.61362C25.3258 6.06181 24.7622 6.57212 24.243 7.12238C23.8569 7.53507 23.5419 8.01875 23.1824 8.48913C23.1425 8.44919 23.1026 8.41369 23.0715 8.36932C22.7698 7.98325 22.4769 7.58388 22.1663 7.20669C21.6116 6.53219 20.9637 5.96418 20.2626 5.45387C18.9979 4.53531 17.5956 3.92293 16.1046 3.50136C15.2748 3.26618 14.4184 3.14193 13.5575 3.04874C12.5368 2.93336 11.5251 3.03986 10.5222 3.19074C9.9054 3.28393 9.3019 3.45255 8.70727 3.65224C7.76208 3.97618 6.84795 4.36668 5.99595 4.88587C5.16613 5.39175 4.38513 5.96418 3.69288 6.64756C3.21363 7.12681 2.76988 7.63713 2.39713 8.20513C2.14862 8.59119 1.86906 8.96394 1.6605 9.36776C1.42975 9.81595 1.19012 10.2553 1.0215 10.7345C0.817371 11.3025 0.591057 11.8661 0.444619 12.4518C0.240494 13.2639 0.0541182 14.0715 0.0186181 14.9102C-0.0257571 15.9308 -0.00356949 16.947 0.227181 17.941C0.391369 18.6599 0.595495 19.3744 0.812933 20.0799C0.914996 20.4083 1.10137 20.7145 1.24781 21.0295C1.39425 21.3446 1.54069 21.6552 1.72262 21.9481C2.09094 22.5383 2.42819 23.1374 2.88525 23.6743C3.33344 24.2024 3.79938 24.7082 4.31857 25.1564C4.75345 25.5336 5.20163 25.9019 5.68532 26.2037C6.37758 26.643 7.10533 27.0246 7.87746 27.3175C8.31677 27.4861 8.75608 27.6814 9.21315 27.8012C10.0385 28.0186 10.8728 28.205 11.7425 28.2938C11.7115 28.3648 11.6937 28.4136 11.6671 28.4579C11.3343 29.0437 10.997 29.6294 10.6687 30.2196C10.4468 30.619 10.2338 31.0273 10.0119 31.4311C9.75896 31.9015 9.50159 32.3763 9.24865 32.8466C9.20871 32.9221 9.19096 33.0108 9.15102 33.0818C8.97352 33.3925 8.79158 33.7031 8.61852 34.0137C8.57415 34.0936 8.54752 34.1868 8.50315 34.2667C8.33452 34.564 8.16146 34.8613 7.97064 35.1941C9.0179 35.7932 10.0829 36.3478 11.1302 36.9292C12.1774 37.506 13.2335 38.0652 14.2985 38.642C14.3207 38.5932 14.3474 38.5489 14.374 38.5045C14.8177 37.7102 15.257 36.9158 15.7052 36.1215C16.291 35.0876 16.8856 34.0536 17.4714 33.0197C17.813 32.4206 18.1503 31.8171 18.4876 31.2136C18.8736 30.5214 19.2597 29.8291 19.6457 29.1413C19.699 29.0481 19.7656 28.9683 19.8144 28.8795C19.9919 28.5556 20.1605 28.2228 20.3424 27.8988C20.5332 27.5616 20.7418 27.2332 20.9371 26.8959C21.1678 26.501 21.3941 26.1061 21.6204 25.7067C21.7181 25.5336 21.8113 25.3606 21.9044 25.1831C22.0109 24.9878 22.1086 24.7837 22.2195 24.5884C22.4192 24.2379 22.6278 23.8873 22.8319 23.5367C22.965 23.3104 23.1026 23.0841 23.2534 22.8267C23.3777 22.9865 23.4709 23.1063 23.5641 23.2306C24.5226 24.5174 25.6541 25.6091 27.052 26.4123C27.793 26.8427 28.5563 27.2376 29.3683 27.5083C30.0828 27.7479 30.8194 27.9299 31.5472 28.1207C31.7823 28.1828 32.0264 28.2006 32.2705 28.2361C32.4258 28.2583 32.5811 28.276 32.763 28.2982C31.4939 30.6235 30.2425 32.9088 28.9823 35.203C29.2396 35.345 29.4704 35.4692 29.7011 35.5935C30.1272 35.8242 30.5532 36.0594 30.9792 36.2902C31.4096 36.5209 31.8356 36.7517 32.2616 36.9824C32.6299 37.191 32.9938 37.4084 33.3754 37.5903C33.6195 37.7057 33.8369 37.8699 34.0721 38.003C34.4227 38.1939 34.7777 38.3802 35.1282 38.571C35.3324 38.6775 35.3324 38.6731 35.43 38.4512C35.461 38.3847 35.4877 38.3225 35.5232 38.2604C36.0468 37.333 36.5704 36.4055 37.0985 35.4781C37.449 34.8568 37.8085 34.2356 38.159 33.6143C38.5939 32.8466 39.0244 32.079 39.4592 31.3113C39.6545 30.974 39.8586 30.6368 40.0494 30.2951C40.2047 30.0111 40.3467 29.7182 40.5021 29.4342C40.6707 29.1324 40.8526 28.8396 41.0257 28.5423C41.1322 28.3514 41.2342 28.1606 41.3363 27.9743C41.4428 27.7746 41.5449 27.5749 41.6602 27.3796C41.8466 27.0513 42.0463 26.7318 42.2327 26.3989C42.4279 26.0528 42.6054 25.6978 42.8007 25.3517C42.9826 25.0277 43.1868 24.7171 43.3731 24.3976C43.4974 24.1802 43.6039 23.9539 43.7237 23.732C43.8346 23.5234 43.9855 23.3415 44.0831 23.1152C44.1941 22.8667 44.3804 22.6492 44.5047 22.4007C44.731 21.9481 44.944 21.4866 45.1481 21.0207C45.3123 20.6479 45.4632 20.2707 45.6052 19.8891C45.8226 19.3167 45.9646 18.722 46.1022 18.123C46.2309 17.5727 46.2975 17.0136 46.3551 16.4545C46.4439 15.5714 46.3951 14.6883 46.2486 13.8141ZM17.8796 16.7695C17.64 17.7413 17.214 18.6244 16.535 19.361C16.078 19.858 15.5322 20.2619 14.8976 20.5459C14.6269 20.6657 14.3695 20.8165 14.0811 20.9097C13.5264 21.0917 12.9628 21.1582 12.3815 21.1449C11.8402 21.136 11.321 21.0429 10.8195 20.8476C10.4024 20.679 10.0119 20.4571 9.63471 20.2042C9.30634 19.9779 9.00902 19.7338 8.7339 19.4498C8.41883 19.1303 8.21914 18.7398 8.00171 18.3582C7.77539 17.9632 7.58458 17.5461 7.47808 17.0979C7.38489 16.7074 7.30058 16.3036 7.34052 16.064C7.3627 15.4605 7.39377 15.0345 7.48252 14.6085C7.56239 14.2091 7.68221 13.823 7.83752 13.4636C8.07714 12.9133 8.39221 12.3986 8.8049 11.9504C9.53265 11.1516 10.4113 10.6014 11.4541 10.3129C11.6538 10.2597 11.8668 10.2553 12.062 10.2064C12.3327 10.1399 12.599 10.1354 12.8697 10.1221C13.2247 10.0999 13.5442 10.2464 13.8859 10.2908C14.0145 10.3041 14.1477 10.3174 14.2675 10.3529C15.1505 10.6191 15.9227 11.0762 16.5705 11.733C17.0365 12.2078 17.3693 12.7713 17.6178 13.3926C17.7997 13.8363 17.924 14.2934 17.995 14.7682C18.0926 15.4427 18.0438 16.1083 17.8796 16.7695ZM39.0244 16.0196C38.98 16.3213 38.9312 16.6231 38.8513 16.9204C38.554 18.0475 37.9904 19.0282 37.0985 19.787C36.597 20.2086 36.0335 20.5592 35.4122 20.7899C35.1504 20.8875 34.8842 20.9985 34.609 21.0473C34.2718 21.1139 33.9257 21.136 33.584 21.1494C33.3266 21.1582 33.0603 21.1582 32.8074 21.105C32.4036 21.0207 31.9953 20.9497 31.627 20.7633C31.3075 20.5991 31.0013 20.4216 30.6996 20.2397C30.2203 19.9557 29.7899 19.6051 29.4837 19.1392C29.213 18.7176 28.9601 18.2872 28.7604 17.8168C28.4586 17.1112 28.4054 16.3746 28.3699 15.6335C28.3521 15.2697 28.4409 14.928 28.5119 14.5774C28.645 13.9384 28.8802 13.3438 29.213 12.7846C29.9763 11.4933 31.1167 10.6857 32.5456 10.2908C32.976 10.1709 33.4242 10.0955 33.8857 10.1177C34.2762 10.1354 34.649 10.2464 35.0306 10.3085C35.3945 10.3662 35.7317 10.5082 36.0601 10.6591C36.6725 10.9386 37.2139 11.338 37.6798 11.8217C38.0171 12.1723 38.2744 12.5983 38.483 13.042C38.6694 13.4325 38.8291 13.8408 38.9179 14.2668C39.0332 14.8481 39.1087 15.4294 39.0244 16.0196Z" fill="white"/>
<path d="M103.941 21.2291C103.768 20.3948 103.51 19.5961 103.16 18.8328C102.521 17.4261 101.607 16.2235 100.351 15.3005C99.6186 14.7592 98.8199 14.3465 97.959 14.0714C97.3155 13.8672 96.6544 13.743 95.9798 13.672C95.1633 13.5877 94.3513 13.6054 93.5392 13.7208C92.8958 13.814 92.2612 13.9604 91.6577 14.2178C91.3915 14.3287 91.1119 14.4175 90.859 14.555C90.3975 14.808 89.9848 15.1319 89.5987 15.4914C88.9375 16.1037 88.3917 16.8049 88.0012 17.6214C87.8903 17.8477 87.7438 18.0562 87.6551 18.2914C87.5086 18.6686 87.3755 19.0591 87.2646 19.4541C87.1004 20.0398 86.9362 20.6256 86.9362 21.2424C86.9362 21.2823 86.9229 21.3267 86.9096 21.411C86.812 21.198 86.7321 21.0338 86.6611 20.8652C86.1286 19.6094 85.3964 18.5044 84.3047 17.6524C83.5903 17.0933 82.796 16.7028 81.9351 16.4454C81.5757 16.3389 81.2029 16.2812 80.8302 16.2147C80.3687 16.1304 79.9027 16.0949 79.4368 16.0815C78.7579 16.0638 78.0878 16.1659 77.4177 16.2768C76.6367 16.4055 75.9045 16.6673 75.1901 16.9868C74.7375 17.1909 74.3203 17.4749 73.921 17.7722C73.424 18.1406 72.9713 18.5488 72.5808 19.0236C72.3057 19.352 72.0439 19.6937 71.7466 20.0709C71.7333 18.7441 71.7466 17.4661 71.7333 16.1969C71.3783 16.1525 71.0676 16.0949 70.7526 16.086C70.1757 16.0682 69.6121 16.1659 69.0663 16.3389C68.2942 16.583 67.6019 16.969 67.0206 17.5282C66.426 18.1051 65.9246 18.7485 65.6273 19.5339C65.5829 19.6537 65.5341 19.7736 65.4719 19.8889C65.4453 19.9377 65.3876 19.9732 65.3122 20.0487C65.2545 18.8328 65.1746 17.6702 65.1169 16.5209C65.0726 16.512 65.0637 16.5075 65.0548 16.5075C62.5476 16.5075 60.036 16.5075 57.5244 16.5031C57.4977 16.5031 57.4755 16.5031 57.4489 16.4987C57.44 16.4987 57.4312 16.4942 57.4223 16.4942C57.4134 16.4898 57.4045 16.4854 57.4001 16.4809C57.3912 16.472 57.3868 16.4676 57.3735 16.4499C57.3735 15.6955 57.3335 14.9278 57.4711 14.169C57.5554 13.6853 57.6752 13.2149 57.906 12.78C58.2122 12.2076 58.6249 11.7594 59.2417 11.5065C59.6011 11.36 59.9739 11.2979 60.351 11.2802C60.6306 11.2624 60.9102 11.2846 61.1897 11.3334C61.5581 11.4044 61.9308 11.4443 62.2858 11.5686C62.379 11.5997 62.4633 11.6307 62.5654 11.5686C62.6674 10.3572 62.7695 9.14571 62.8716 7.94314C62.3435 7.70796 61.7888 7.68133 61.2652 7.53933C60.8924 7.43727 60.4753 7.47721 60.0804 7.46389C59.4414 7.44171 58.8112 7.50383 58.1855 7.63252C57.5687 7.75677 56.9697 7.95646 56.3928 8.2094C56.0156 8.36915 55.6783 8.5999 55.3677 8.86171C55.0748 9.11021 54.7908 9.37202 54.529 9.65159C54.2761 9.92671 54.0675 10.2418 53.8812 10.5702C53.5173 11.218 53.1978 11.8837 53.0247 12.607C52.9093 13.104 52.7629 13.5921 52.7318 14.1069C52.6919 14.8302 52.6564 15.5535 52.6165 16.2768C52.6165 16.3478 52.6076 16.4144 52.6031 16.512H50.0826V20.1064H52.6209V34.2709C52.6209 34.6304 52.612 34.9898 52.6253 35.3404H57.4134V20.1241C57.7995 20.0709 60.9279 20.0842 61.1542 20.1507C61.1986 25.2051 61.1631 30.2683 61.1764 35.3359C61.5359 35.3847 65.7515 35.367 65.9379 35.3137C65.9379 35.2694 65.9423 35.2294 65.9423 35.185C65.9379 31.9545 65.9379 28.724 65.9379 25.4935C65.9379 25.1119 65.9334 24.7258 65.9956 24.3575C66.071 23.9359 66.1864 23.5188 66.3506 23.1239C66.5991 22.5115 66.9807 21.9746 67.491 21.5397C67.8815 21.2069 68.312 20.9273 68.8045 20.7764C69.1285 20.6788 69.4701 20.6344 69.8074 20.5767C70.3177 20.4924 70.8325 20.5679 71.3428 20.5989C71.3827 20.6034 71.4226 20.6256 71.467 20.6433C71.2096 21.1847 70.939 21.6994 70.7615 22.263C70.4819 23.1505 70.2378 24.038 70.1713 24.9699C70.0958 26.0216 70.1003 27.0644 70.2423 28.1116C70.3177 28.6575 70.473 29.1855 70.615 29.7136C70.7437 30.1928 70.9611 30.6322 71.183 31.0759C71.538 31.7948 72.004 32.4382 72.5498 33.024C73.3263 33.8494 74.2627 34.4484 75.2833 34.9099C75.6871 35.0919 76.1175 35.2161 76.5435 35.3359C77.0228 35.4646 77.5109 35.5755 78.0035 35.6599C78.3097 35.7131 78.6292 35.7042 78.9442 35.7175C80.058 35.7752 81.1719 35.753 82.2768 35.6066C82.7383 35.5489 83.1954 35.4779 83.648 35.3892C84.5355 35.2161 85.4053 34.9898 86.2351 34.617C86.2928 34.5904 86.3948 34.5771 86.4126 34.5327C86.4348 34.4706 86.4126 34.3819 86.3948 34.3064C86.2839 33.8316 86.1596 33.3612 86.0576 32.8864C85.9821 32.5492 85.9378 32.203 85.8712 31.8658C85.8357 31.6794 85.7869 31.493 85.7425 31.2889C85.6271 31.3244 85.5339 31.351 85.4452 31.3777C84.3802 31.7327 83.293 31.9767 82.1747 32.0522C81.5313 32.0965 80.8834 32.1054 80.2355 32.1054C79.7918 32.1098 79.3481 32.1054 78.9087 31.9989C78.2431 31.8436 77.5997 31.6528 77.0006 31.3111C76.0909 30.7875 75.4342 30.042 75.0437 29.0835C74.8351 28.5776 74.7242 28.0273 74.7108 27.4726C74.7108 27.4105 74.7108 27.3528 74.7197 27.273H87.3134C87.4953 26.4565 87.482 25.6444 87.4909 24.819H99.592C99.592 24.8723 99.6097 24.9122 99.6053 24.9433C99.5609 25.2583 99.5432 25.5823 99.4589 25.8885C99.3213 26.4165 99.1749 26.9446 98.8376 27.3928C98.4649 27.8898 98.0744 28.3646 97.533 28.6841C97.1114 28.9281 96.6899 29.1678 96.215 29.3142C95.616 29.505 95.0036 29.6337 94.3735 29.647C93.659 29.6603 92.9402 29.6204 92.2213 29.6027C92.0837 29.6027 91.9417 29.6071 91.8042 29.5893C91.5113 29.5494 91.2184 29.4962 90.93 29.4473C90.6593 29.3985 90.3841 29.3586 90.1179 29.2965C89.7718 29.2077 89.4301 29.0968 89.0884 29.0036C88.9153 28.9548 88.7423 28.9148 88.5515 28.8705C88.4272 29.403 88.303 29.9399 88.192 30.4724C88.0811 31.0093 87.9036 31.533 87.8947 32.0788C88.0411 32.1631 88.1609 32.2607 88.2985 32.3007C88.9109 32.4959 89.5321 32.6734 90.1534 32.8465C90.3353 32.8997 90.5306 32.9086 90.717 32.9441C90.9122 32.9752 91.0986 33.0284 91.2938 33.0595C91.4358 33.0817 91.5956 33.0595 91.7243 33.1127C91.924 33.197 92.1281 33.1615 92.3278 33.1704C92.5896 33.1837 92.8425 33.2458 93.1132 33.2281C93.375 33.2103 93.6502 33.2769 93.9253 33.2814C94.835 33.2947 95.7402 33.2769 96.6366 33.1127C97.0537 33.0329 97.4709 32.9574 97.8791 32.8465C98.4072 32.7045 98.9264 32.5225 99.4056 32.2563C99.8715 31.9945 100.355 31.7548 100.777 31.4309C101.229 31.0848 101.669 30.7076 102.033 30.255C102.396 29.7979 102.756 29.3408 103.027 28.8261C103.497 27.9386 103.839 27.0067 103.981 26.0083C104.043 25.5512 104.149 25.0941 104.176 24.6371C104.238 23.4922 104.172 22.3606 103.941 21.2291ZM82.9779 23.9226H74.7242C74.662 23.5765 74.7685 23.2614 74.844 22.9464C74.9194 22.6446 75.0215 22.3384 75.1546 22.0544C75.2966 21.7483 75.483 21.4643 75.6516 21.1714C75.869 20.7897 76.2063 20.5191 76.508 20.2173C76.6989 20.0265 76.9385 19.8712 77.1825 19.7602C77.8171 19.4851 78.4872 19.3209 79.1883 19.3476C79.5477 19.3609 79.8805 19.5029 80.2267 19.565C80.7459 19.6493 81.1674 19.8978 81.5579 20.2217C81.9839 20.5723 82.2768 21.0161 82.4987 21.5086C82.8226 22.2364 82.9646 23.0085 82.9912 23.8028C82.9912 23.8383 82.9824 23.8694 82.9779 23.9226ZM91.356 21.4731C91.3604 21.0205 91.3604 20.6167 91.4447 20.2084C91.5601 19.6537 91.7332 19.1301 92.0127 18.642C92.5097 17.7767 93.2552 17.2087 94.2359 16.9957C94.6264 16.9114 95.0347 16.8892 95.4385 16.8847C95.8645 16.8803 96.2816 16.9868 96.681 17.1421C96.9739 17.2575 97.249 17.435 97.5241 17.5992C97.6705 17.6835 97.8037 17.7856 97.9279 17.9009C98.0877 18.0518 98.2341 18.216 98.3717 18.3846C98.6779 18.7529 98.8997 19.1745 99.1039 19.6094C99.3036 20.0265 99.4722 20.4525 99.5121 20.9184C99.5165 20.9584 99.5476 20.9939 99.552 21.0382C99.5742 21.1714 99.592 21.3089 99.6142 21.4776C96.8452 21.4776 94.1117 21.482 91.356 21.4776V21.4731Z" fill="white"/>
<path d="M126.297 35.0432C126.27 34.8613 126.239 34.6838 126.221 34.5018C126.19 34.1957 126.164 33.8895 126.146 33.5833C126.115 33.0375 126.066 32.4917 126.066 31.9414C126.062 29.4386 126.075 26.9359 126.062 24.4287C126.057 23.7453 126.004 23.0575 125.942 22.3741C125.906 22.028 125.809 21.6819 125.729 21.3402C125.676 21.1139 125.596 20.8964 125.529 20.6746V20.6479C125.396 20.3018 125.285 19.9468 125.121 19.6184C124.966 19.3122 124.762 19.0282 124.562 18.7442C124.167 18.1851 123.665 17.7192 123.102 17.342C122.725 17.0935 122.33 16.8583 121.89 16.7207C121.464 16.5876 121.043 16.4367 120.612 16.3213C120.342 16.2459 120.058 16.2104 119.783 16.1749C118.482 16.0063 117.187 16.0773 115.895 16.2637C115.713 16.2859 115.54 16.379 115.363 16.379C114.99 16.3835 114.64 16.5033 114.293 16.5965C113.779 16.734 113.273 16.9071 112.776 17.0979C112.381 17.2532 112.004 17.4485 111.626 17.6349C111.547 17.6748 111.48 17.7502 111.422 17.799C111.591 18.3182 111.742 18.8064 111.875 19.3034C112.008 19.8048 112.19 20.2974 112.35 20.7899C112.403 20.7899 112.447 20.8032 112.47 20.7855C112.723 20.5991 113.002 20.4704 113.304 20.3639C113.708 20.2264 114.094 20.0533 114.498 19.9113C115.101 19.6983 115.736 19.614 116.366 19.5297C116.987 19.4454 117.622 19.4276 118.247 19.5252C118.491 19.5607 118.727 19.6584 118.971 19.6983C119.232 19.7338 119.472 19.8314 119.689 19.9601C119.934 20.1021 120.178 20.2486 120.386 20.4305C120.999 20.9807 121.203 21.7174 121.26 22.5072C121.274 22.6759 121.256 22.8489 121.251 23.022C121.158 23.0309 121.109 23.0353 121.056 23.0353C120.031 23.0664 119.002 23.0974 117.985 23.2394C117.249 23.3459 116.517 23.4702 115.798 23.6743C114.675 23.9894 113.592 24.3976 112.643 25.0988C111.591 25.8709 110.801 26.8338 110.388 28.0852C110.229 28.5778 110.091 29.0836 110.069 29.594C110.051 30.0155 110.056 30.4504 110.1 30.8764C110.144 31.3157 110.233 31.7462 110.393 32.1455C110.743 32.9975 111.218 33.7785 111.933 34.3953C112.408 34.8125 112.944 35.1231 113.521 35.3672C114.094 35.6112 114.706 35.7577 115.336 35.7621C115.953 35.7665 116.574 35.8508 117.187 35.7177C117.679 35.6112 118.181 35.5313 118.66 35.3538C119.099 35.1897 119.521 34.99 119.92 34.7459C120.488 34.3909 121.025 33.9915 121.438 33.4502C121.496 33.3792 121.553 33.2815 121.677 33.3392C121.797 34.0048 121.913 34.6749 122.032 35.3494H126.332C126.319 35.2296 126.31 35.1364 126.297 35.0432ZM121.34 29.168C121.331 29.2123 121.327 29.2567 121.327 29.3011C121.345 29.6738 121.212 30.0022 121.038 30.3173C120.453 31.3823 119.539 32.008 118.372 32.2875C117.928 32.3896 117.466 32.4295 117.027 32.3585C116.02 32.1943 115.168 31.582 114.919 30.5391C114.746 29.8203 114.759 29.1014 115.057 28.4136C115.243 27.9876 115.54 27.6503 115.918 27.3708C116.237 27.1356 116.561 26.9137 116.938 26.7894C117.227 26.6874 117.515 26.5454 117.812 26.5054C118.198 26.4566 118.562 26.3279 118.957 26.3058C119.272 26.288 119.592 26.2037 119.916 26.1948C120.391 26.1859 120.87 26.1682 121.38 26.1549C121.389 26.2791 121.402 26.3634 121.402 26.4522C121.407 27.2066 121.416 27.9565 121.411 28.7065C121.407 28.8618 121.362 29.0171 121.34 29.168Z" fill="white"/>
<path d="M109.501 8.08516C109.505 8.13841 109.501 8.19166 109.501 8.24491V35.0297C109.501 35.2457 109.394 35.3537 109.181 35.3537C107.757 35.3581 106.328 35.3626 104.899 35.3626H104.713V11.7772C104.278 11.8437 103.874 11.9059 103.475 11.968C103.422 11.9769 103.368 11.9813 103.315 11.9813C103.062 11.9724 102.814 11.9813 102.565 12.07C102.441 12.1189 102.294 12.1233 102.157 12.1366C101.957 12.1588 101.758 12.1721 101.562 12.1899C101.438 12.2032 101.318 12.2254 101.198 12.2387C100.981 12.2609 100.764 12.2742 100.546 12.3052C100.382 12.3274 100.204 12.354 100.054 12.425C99.9115 12.4872 99.8272 12.4206 99.6719 12.3674C101.371 11.005 103.04 9.66935 104.713 8.32922V7.88991C104.842 7.88991 104.961 7.88103 105.081 7.89435C105.263 7.9121 105.387 7.83666 105.516 7.72128C105.676 7.57928 105.853 7.45503 106.026 7.32634C106.044 7.31303 106.08 7.31747 106.142 7.30859C106.164 7.39734 106.199 7.49053 106.208 7.58372C106.231 7.85441 106.244 7.8766 106.528 7.88103C107.051 7.88103 107.575 7.88103 108.099 7.88103C108.498 7.88103 108.897 7.88103 109.297 7.88547C109.479 7.88991 109.492 7.90766 109.501 8.08072V8.08516Z" fill="white"/>
<path d="M102.481 2.8047C102.046 3.51027 101.545 4.13596 101.083 4.78383C100.613 5.43615 100.138 6.08846 99.6586 6.7319C99.1749 7.37978 98.7089 8.04097 98.2341 8.69328C97.7593 9.34116 97.2845 9.99347 96.7831 10.6369C96.7431 7.39753 96.752 4.16258 96.7476 0.887695C98.6734 1.53113 100.568 2.1657 102.481 2.8047Z" fill="white"/>
<path d="M92.1547 10.5971C92.0571 10.4861 91.9683 10.4018 91.9018 10.3042C91.6621 9.96695 91.4314 9.62527 91.2006 9.28358C90.8279 8.72445 90.464 8.15645 90.0868 7.59732C89.7629 7.10919 89.4478 6.61663 89.0928 6.15069C88.76 5.7025 88.4494 5.24544 88.1565 4.73512C88.4582 4.51769 88.7422 4.27806 89.0529 4.09612C89.9626 3.55918 90.7658 2.86249 91.7287 2.33887C91.7819 3.31068 91.8352 4.21594 91.8884 5.12563C91.9417 6.03532 91.9949 6.94501 92.0393 7.8547C92.0793 8.75107 92.1636 9.65189 92.1547 10.5971Z" fill="white"/>
<path d="M89.5144 12.1237C89.186 12.1237 88.8665 12.1414 88.5514 12.1192C88.2275 12.097 87.9036 12.0127 87.5796 12.0038C87.2512 11.995 86.9317 11.9062 86.5989 11.9195C86.275 11.9284 85.9644 11.8485 85.6404 11.8263C85.3209 11.8086 85.0014 11.7864 84.6642 11.7687C84.6597 11.6843 84.6553 11.6045 84.6553 11.529L84.6686 9.54546C84.6686 9.4789 84.642 9.41234 84.6154 9.28809C84.8106 9.36796 84.9837 9.41677 85.1212 9.50552C85.4629 9.72296 85.8179 9.92265 86.1641 10.1268C87.2601 10.7658 88.3517 11.4137 89.4434 12.0615C89.47 12.0748 89.4878 12.1015 89.5144 12.1237Z" fill="white"/>
</svg>
