<svg width="449" height="428" viewBox="0 0 449 428" fill="none" xmlns="http://www.w3.org/2000/svg">
<rect x="0.549486" y="0.497545" width="277" height="277" transform="matrix(1 0 0.0989724 0.99509 46.9508 151.002)" fill="url(#paint0_linear_31_735)" stroke="url(#paint1_linear_31_735)" stroke-dasharray="6 6"/>
<rect width="278" height="278" transform="matrix(1 0 0.0989724 0.99509 0 0)" fill="url(#paint2_linear_31_735)"/>
<path d="M69.7975 68H59.3095V51.992H69.7975V53.768H61.3015V58.928H69.6295V60.704H61.3015V66.224H69.7975V68ZM82.4056 68H72.9736V51.992H74.9656V66.224H82.4056V68ZM95.6959 68H85.2079V51.992H95.6959V53.768H87.1999V58.928H95.5279V60.704H87.1999V66.224H95.6959V68ZM106.12 68H103.648L97.216 51.992H99.496L104.896 65.816L110.296 51.992H112.576L106.12 68ZM127.084 68H124.876L123.46 64.448H115.348L113.932 68H111.724L118.156 51.992H120.628L127.084 68ZM122.86 62.672L119.404 53.768L115.924 62.672H122.86ZM144.849 68H142.857V54.68L137.409 68H136.593L131.169 54.68V68H129.177V51.992H132.033L137.001 64.184L141.993 51.992H144.849V68ZM147.935 60.008C147.935 55.28 151.127 51.728 155.879 51.728C160.607 51.728 163.823 55.28 163.823 60.008C163.823 64.736 160.607 68.288 155.879 68.288C151.127 68.288 147.935 64.736 147.935 60.008ZM161.759 60.008C161.759 56.264 159.455 53.504 155.879 53.504C152.279 53.504 149.999 56.264 149.999 60.008C149.999 63.728 152.279 66.512 155.879 66.512C159.455 66.512 161.759 63.728 161.759 60.008ZM165.975 65.744L167.151 64.232C168.207 65.408 169.935 66.512 172.191 66.512C175.047 66.512 175.959 64.976 175.959 63.752C175.959 61.832 174.015 61.304 171.903 60.728C169.335 60.056 166.479 59.336 166.479 56.192C166.479 53.552 168.831 51.752 171.975 51.752C174.423 51.752 176.319 52.568 177.663 53.984L176.463 55.448C175.263 54.128 173.583 53.528 171.831 53.528C169.911 53.528 168.543 54.56 168.543 56.072C168.543 57.68 170.391 58.16 172.431 58.712C175.047 59.408 178.023 60.224 178.023 63.584C178.023 65.912 176.439 68.288 172.118 68.288C169.335 68.288 167.295 67.232 165.975 65.744ZM186.537 60.008C186.537 55.28 189.729 51.728 194.481 51.728C199.209 51.728 202.425 55.28 202.425 60.008C202.425 64.736 199.209 68.288 194.481 68.288C189.729 68.288 186.537 64.736 186.537 60.008ZM200.361 60.008C200.361 56.264 198.057 53.504 194.481 53.504C190.881 53.504 188.601 56.264 188.601 60.008C188.601 63.728 190.881 66.512 194.481 66.512C198.057 66.512 200.361 63.728 200.361 60.008ZM210.764 65.744L211.94 64.232C212.996 65.408 214.724 66.512 216.98 66.512C219.836 66.512 220.748 64.976 220.748 63.752C220.748 61.832 218.804 61.304 216.692 60.728C214.124 60.056 211.268 59.336 211.268 56.192C211.268 53.552 213.62 51.752 216.764 51.752C219.212 51.752 221.108 52.568 222.452 53.984L221.252 55.448C220.052 54.128 218.372 53.528 216.62 53.528C214.7 53.528 213.332 54.56 213.332 56.072C213.332 57.68 215.18 58.16 217.22 58.712C219.836 59.408 222.812 60.224 222.812 63.584C222.812 65.912 221.228 68.288 216.908 68.288C214.124 68.288 212.084 67.232 210.764 65.744ZM236.274 68H225.786V51.992H236.274V53.768H227.778V58.928H236.106V60.704H227.778V66.224H236.274V68ZM239.45 61.784V51.992H241.442V61.736C241.442 64.664 243.026 66.512 245.978 66.512C248.93 66.512 250.514 64.664 250.514 61.736V51.992H252.506V61.76C252.506 65.744 250.322 68.288 245.978 68.288C241.634 68.288 239.45 65.72 239.45 61.784ZM275.69 68H273.77L264.434 55.088V68H262.442V51.992H264.482L273.698 64.64V51.992H275.69V68ZM285.123 47.192L281.067 50.648H279.699L283.251 47.192H285.123ZM281.427 68H279.435V51.992H281.427V68ZM292.425 68H289.953L283.521 51.992H285.801L291.201 65.816L296.601 51.992H298.881L292.425 68ZM311.462 68H300.974V51.992H311.462V53.768H302.966V58.928H311.294V60.704H302.966V66.224H311.462V68ZM324.07 68H314.638V51.992H316.63V66.224H324.07V68Z" fill="white"/>
<path d="M346.333 60.5C346.333 61.9728 347.527 63.1667 349 63.1667C350.473 63.1667 351.667 61.9728 351.667 60.5C351.667 59.0272 350.473 57.8333 349 57.8333C347.527 57.8333 346.333 59.0272 346.333 60.5ZM349 61H449V60H349V61Z" fill="white"/>
<circle cx="306.5" cy="240.5" r="142.5" fill="url(#paint3_linear_31_735)"/>
<defs>
<linearGradient id="paint0_linear_31_735" x1="-3.5" y1="3.27051e-06" x2="117.658" y2="144.985" gradientUnits="userSpaceOnUse">
<stop stop-color="#ED2D78"/>
<stop offset="1" stop-color="#ED2D78" stop-opacity="0"/>
</linearGradient>
<linearGradient id="paint1_linear_31_735" x1="40.7729" y1="42.7097" x2="117.335" y2="182.685" gradientUnits="userSpaceOnUse">
<stop stop-color="white"/>
<stop offset="1" stop-color="white" stop-opacity="0"/>
</linearGradient>
<linearGradient id="paint2_linear_31_735" x1="48" y1="44.5" x2="260.5" y2="251" gradientUnits="userSpaceOnUse">
<stop stop-color="#ED2D78"/>
<stop offset="1" stop-color="#ED2D78" stop-opacity="0"/>
</linearGradient>
<linearGradient id="paint3_linear_31_735" x1="272.5" y1="230.5" x2="404" y2="383" gradientUnits="userSpaceOnUse">
<stop stop-color="#501FFB"/>
<stop offset="1" stop-color="#501FFB" stop-opacity="0"/>
</linearGradient>
</defs>
</svg>
