<svg width="448" height="430" viewBox="0 0 448 430" fill="none" xmlns="http://www.w3.org/2000/svg">
<circle cx="246" cy="228" r="201.5" stroke="white" stroke-dasharray="6 6"/>
<path d="M404 202.024C404 313.586 313.562 404.024 202 404.024C90.4385 404.024 0 313.586 0 202.024C0 90.4629 90.4385 0.0243957 202 0.0243957C313.562 0.0243957 404 90.4629 404 202.024Z" fill="url(#paint0_linear_31_696)"/>
<path d="M97.3333 311.5C97.3333 312.973 98.5272 314.167 100 314.167C101.473 314.167 102.667 312.973 102.667 311.5C102.667 310.027 101.473 308.833 100 308.833C98.5272 308.833 97.3333 310.027 97.3333 311.5ZM0 312H100V311H0V312Z" fill="white"/>
<path d="M137.235 319H126.747V302.992H137.235V304.768H128.739V309.928H137.067V311.704H128.739V317.224H137.235V319ZM153.659 319H151.739L142.403 306.088V319H140.411V302.992H142.451L151.667 315.64V302.992H153.659V319ZM163.355 319H161.363V304.768H156.299V302.992H168.443V304.768H163.355V319ZM182.707 319H180.355L176.275 312.64H173.083V319H171.091V302.992H177.523C180.451 302.992 182.539 304.864 182.539 307.816C182.539 310.696 180.571 312.28 178.387 312.472L182.707 319ZM180.475 307.816C180.475 306.016 179.179 304.768 177.283 304.768H173.083V310.888H177.283C179.179 310.888 180.475 309.616 180.475 307.816ZM196.18 319H185.692V302.992H196.18V304.768H187.684V309.928H196.012V311.704H187.684V317.224H196.18V319ZM198.708 311.008C198.708 306.04 202.38 302.728 206.94 302.728C209.772 302.728 211.74 303.976 213.156 305.728L211.572 306.712C210.564 305.416 208.86 304.504 206.94 304.504C203.436 304.504 200.772 307.192 200.772 311.008C200.772 314.8 203.436 317.536 206.94 317.536C208.86 317.536 210.444 316.6 211.236 315.808V312.544H205.74V310.768H213.228V316.552C211.74 318.208 209.556 319.312 206.94 319.312C202.38 319.312 198.708 315.976 198.708 311.008ZM230.099 319H227.891L226.475 315.448H218.363L216.947 319H214.739L221.171 302.992H223.643L230.099 319ZM225.875 313.672L222.419 304.768L218.939 313.672H225.875ZM247.864 319H245.872V305.68L240.424 319H239.608L234.184 305.68V319H232.192V302.992H235.048L240.016 315.184L245.008 302.992H247.864V319ZM250.951 311.008C250.951 306.28 254.143 302.728 258.895 302.728C263.623 302.728 266.839 306.28 266.839 311.008C266.839 315.736 263.623 319.288 258.895 319.288C254.143 319.288 250.951 315.736 250.951 311.008ZM264.775 311.008C264.775 307.264 262.471 304.504 258.895 304.504C255.295 304.504 253.015 307.264 253.015 311.008C253.015 314.728 255.295 317.512 258.895 317.512C262.471 317.512 264.775 314.728 264.775 311.008ZM268.99 316.744L270.166 315.232C271.222 316.408 272.95 317.512 275.206 317.512C278.062 317.512 278.974 315.976 278.974 314.752C278.974 312.832 277.03 312.304 274.918 311.728C272.35 311.056 269.494 310.336 269.494 307.192C269.494 304.552 271.846 302.752 274.99 302.752C277.438 302.752 279.334 303.568 280.678 304.984L279.478 306.448C278.278 305.128 276.598 304.528 274.846 304.528C272.926 304.528 271.558 305.56 271.558 307.072C271.558 308.68 273.406 309.16 275.446 309.712C278.062 310.408 281.038 311.224 281.038 314.584C281.038 316.912 279.454 319.288 275.134 319.288C272.35 319.288 270.31 318.232 268.99 316.744ZM297.448 319H294.976L288.544 302.992H290.824L296.224 316.816L301.624 302.992H303.904L297.448 319ZM318.412 319H316.204L314.788 315.448H306.676L305.26 319H303.052L309.484 302.992H311.956L318.412 319ZM314.188 313.672L310.732 304.768L307.252 313.672H314.188ZM329.937 319H320.505V302.992H322.497V317.224H329.937V319ZM331.271 311.008C331.271 306.28 334.463 302.728 339.215 302.728C343.943 302.728 347.159 306.28 347.159 311.008C347.159 315.736 343.943 319.288 339.215 319.288C334.463 319.288 331.271 315.736 331.271 311.008ZM345.095 311.008C345.095 307.264 342.791 304.504 339.215 304.504C335.615 304.504 333.335 307.264 333.335 311.008C333.335 314.728 335.615 317.512 339.215 317.512C342.791 317.512 345.095 314.728 345.095 311.008ZM361.886 319H359.534L355.454 312.64H352.262V319H350.27V302.992H356.702C359.63 302.992 361.718 304.864 361.718 307.816C361.718 310.696 359.75 312.28 357.566 312.472L361.886 319ZM359.654 307.816C359.654 306.016 358.358 304.768 356.462 304.768H352.262V310.888H356.462C358.358 310.888 359.654 309.616 359.654 307.816Z" fill="white"/>
<defs>
<linearGradient id="paint0_linear_31_696" x1="152" y1="104.5" x2="357" y2="349.5" gradientUnits="userSpaceOnUse">
<stop stop-color="#501FFB"/>
<stop offset="1" stop-color="#501FFB" stop-opacity="0"/>
</linearGradient>
</defs>
</svg>
