<svg width="104" height="32" viewBox="0 0 104 32" fill="none" xmlns="http://www.w3.org/2000/svg">
<g clip-path="url(#clip0_33_909)">
<path d="M95.432 15.5407H91.8444C89.5298 15.5407 88.2568 17.263 88.2568 20.2481V30.9259H81.3129V15.5407H78.4197C76.1051 15.5407 74.832 17.263 74.832 20.2481V30.9259H67.8882V9.8H74.832V13.0148C75.9894 10.4889 77.4938 9.8 79.8084 9.8H88.2568V13.0148C89.4141 10.4889 90.9186 9.8 93.2332 9.8H95.5478L95.432 15.5407ZM66.268 21.9704H51.9174C52.2646 24.3815 53.7691 25.6444 56.1995 25.6444C58.0512 25.6444 59.3242 24.8407 59.7871 23.5778L65.9208 25.3C64.4163 28.9741 60.7129 31.1556 56.1995 31.1556C48.677 31.1556 45.2051 25.3 45.2051 20.2481C45.2051 15.3111 48.2141 9.45555 55.7365 9.45555C63.7219 9.45555 66.3837 15.4259 66.3837 19.9037C66.3837 20.937 66.3837 21.5111 66.268 21.9704ZM59.6714 17.9519C59.5556 16.1148 58.1669 14.5074 55.8523 14.5074C53.6534 14.5074 52.3804 15.4259 51.9174 17.9519H59.6714ZM33.1691 30.9259H39.1871L46.8253 9.91481H39.8815L36.1781 22.2L32.4747 9.8H25.5309L33.1691 30.9259ZM4.93093 30.9259H11.759V15.5407H18.3556V30.9259H25.1837V9.8H11.759V8.53704C11.759 7.15926 12.8006 6.24074 14.3051 6.24074H18.3556V0.5H13.2635C8.28711 0.5 4.93093 3.6 4.93093 8.07778V9.8H0.996094V15.5407H4.93093V30.9259Z" fill="white"/>
<path d="M99.714 31.5002C102.029 31.5002 103.996 29.5484 103.996 27.2521C103.996 24.9558 102.029 23.0039 99.714 23.0039C97.3994 23.0039 95.432 24.9558 95.432 27.2521C95.432 29.5484 97.3994 31.5002 99.714 31.5002Z" fill="white"/>
</g>
<defs>
<clipPath id="clip0_33_909">
<rect width="103" height="31" fill="white" transform="translate(0.996094 0.5)"/>
</clipPath>
</defs>
</svg>
