<svg width="20" height="21" viewBox="0 0 20 21" fill="none" xmlns="http://www.w3.org/2000/svg">
<path d="M9.99313 4.85547C8.63118 4.85547 7.32491 5.39653 6.36182 6.35962C5.39872 7.32271 4.85767 8.62894 4.85767 9.99099C4.85767 11.3529 5.39872 12.6592 6.36182 13.6223C7.32491 14.5854 8.63118 15.1265 9.99313 15.1265C11.3552 15.1265 12.6614 14.5854 13.6245 13.6223C14.5875 12.6592 15.1286 11.3529 15.1286 9.99099C15.1286 8.62894 14.5875 7.32271 13.6245 6.35962C12.6614 5.39653 11.3552 4.85547 9.99313 4.85547ZM9.99313 13.3262C9.1083 13.3262 8.25968 12.9747 7.63404 12.3489C7.00836 11.7232 6.65686 10.8747 6.65686 9.98988C6.65686 9.10506 7.00836 8.25644 7.63404 7.63073C8.25968 7.00505 9.1083 6.65355 9.99313 6.65355C10.878 6.65355 11.7266 7.00505 12.3523 7.63073C12.9779 8.25644 13.3294 9.10506 13.3294 9.98988C13.3294 10.8747 12.9779 11.7232 12.3523 12.3489C11.7266 12.9747 10.878 13.3262 9.99313 13.3262Z" fill="white"/>
<path d="M15.327 5.86421C15.9883 5.86421 16.5242 5.3282 16.5242 4.66697C16.5242 4.00575 15.9883 3.46973 15.327 3.46973C14.6657 3.46973 14.1298 4.00575 14.1298 4.66697C14.1298 5.3282 14.6657 5.86421 15.327 5.86421Z" fill="white"/>
<path d="M19.4702 3.44957C19.2131 2.78562 18.8202 2.18268 18.3166 1.67932C17.8131 1.17596 17.21 0.783283 16.546 0.526431C15.7689 0.234739 14.9479 0.0770101 14.1182 0.0599733C13.0487 0.0133275 12.7099 0 9.99781 0C7.28563 0 6.93801 1.53082e-07 5.87737 0.0599733C5.04818 0.0761439 4.22784 0.233895 3.45179 0.526431C2.78758 0.782983 2.18432 1.17555 1.68074 1.67895C1.17715 2.18235 0.784349 2.78545 0.527542 3.44957C0.235794 4.22658 0.0784316 5.04756 0.0621944 5.87737C0.014438 6.94578 0 7.28452 0 9.99777C0 12.7099 -8.27472e-09 13.0553 0.0621944 14.1182C0.0788536 14.9489 0.23545 15.7685 0.527542 16.5471C0.785071 17.2109 1.17825 17.8138 1.68196 18.3172C2.18567 18.8205 2.78883 19.2132 3.4529 19.4702C4.22749 19.7736 5.04815 19.9427 5.87959 19.97C6.94911 20.0166 7.28785 20.0311 10 20.0311C12.7121 20.0311 13.0598 20.0311 14.1204 19.97C14.9501 19.9531 15.771 19.7957 16.5482 19.5046C17.212 19.2472 17.815 18.8541 18.3184 18.3507C18.822 17.8472 19.2149 17.2442 19.4725 16.5804C19.7646 15.803 19.9211 14.9833 19.9378 14.1526C19.9856 13.0842 20 12.7454 20 10.0322C20 7.31895 20 6.97466 19.9378 5.9118C19.9248 5.07027 19.7667 4.23727 19.4702 3.44957ZM18.1175 14.036C18.1103 14.676 17.9935 15.3101 17.7721 15.9107C17.6053 16.3426 17.35 16.7348 17.0224 17.0621C16.695 17.3892 16.3027 17.6444 15.8707 17.8109C15.2768 18.0313 14.6494 18.1481 14.016 18.1563C12.9609 18.2052 12.6633 18.2174 9.95782 18.2174C7.25009 18.2174 6.97355 18.2174 5.89847 18.1563C5.26535 18.1486 4.63829 18.0317 4.04486 17.8109C3.61137 17.6455 3.21745 17.3908 2.88859 17.0634C2.55972 16.7361 2.30324 16.3434 2.13571 15.9107C1.91742 15.3165 1.80065 14.6899 1.79031 14.0571C1.74255 13.002 1.73145 12.7043 1.73145 9.99888C1.73145 7.29229 1.73145 7.01575 1.79031 5.93956C1.7975 5.29988 1.91432 4.66616 2.13571 4.06596C2.47445 3.18968 3.16858 2.49999 4.04486 2.16459C4.63858 1.94484 5.26546 1.82804 5.89847 1.81919C6.95467 1.77143 7.2512 1.7581 9.95782 1.7581C12.6644 1.7581 12.942 1.7581 14.016 1.81919C14.6495 1.8268 15.2769 1.94365 15.8707 2.16459C16.3027 2.33149 16.6949 2.58685 17.0223 2.91429C17.3497 3.24173 17.6052 3.63401 17.7721 4.06596C17.9903 4.66008 18.1071 5.2867 18.1175 5.91957C18.1653 6.97577 18.1774 7.2723 18.1774 9.97889C18.1774 12.6843 18.1774 12.9753 18.1297 14.0371H18.1175V14.036Z" fill="white"/>
</svg>
