<svg width="17" height="17" viewBox="0 0 17 17" fill="none" xmlns="http://www.w3.org/2000/svg">
<path d="M7.99516 3.88489C6.90552 3.88489 5.86042 4.31777 5.08989 5.0883C4.31936 5.85883 3.88647 6.9039 3.88647 7.99363C3.88647 9.08327 4.31936 10.1284 5.08989 10.8989C5.86042 11.6694 6.90552 12.1023 7.99516 12.1023C9.08489 12.1023 10.1299 11.6694 10.9005 10.8989C11.671 10.1284 12.1039 9.08327 12.1039 7.99363C12.1039 6.9039 11.671 5.85883 10.9005 5.0883C10.1299 4.31777 9.08489 3.88489 7.99516 3.88489ZM7.99516 10.662C7.28725 10.662 6.6083 10.3807 6.10774 9.88013C5.60716 9.37952 5.32594 8.70066 5.32594 7.99274C5.32594 7.28482 5.60716 6.60588 6.10774 6.10527C6.6083 5.60469 7.28725 5.32347 7.99516 5.32347C8.70308 5.32347 9.38203 5.60469 9.88264 6.10527C10.3832 6.60588 10.6644 7.28482 10.6644 7.99274C10.6644 8.70066 10.3832 9.37952 9.88264 9.88013C9.38203 10.3807 8.70308 10.662 7.99516 10.662Z" fill="white"/>
<path d="M12.2626 4.69174C12.7916 4.69174 13.2204 4.26289 13.2204 3.73387C13.2204 3.20486 12.7916 2.776 12.2626 2.776C11.7335 2.776 11.3047 3.20486 11.3047 3.73387C11.3047 4.26289 11.7335 4.69174 12.2626 4.69174Z" fill="white"/>
<path d="M15.5774 2.75987C15.3717 2.22867 15.0573 1.74628 14.6545 1.34356C14.2516 0.940844 13.7691 0.626675 13.2378 0.421178C12.6161 0.187806 11.9593 0.0616129 11.2954 0.0479824C10.4397 0.0106629 10.1687 0 7.99887 0C5.82896 0 5.55084 1.22475e-07 4.70226 0.0479824C4.03886 0.0609199 3.38254 0.187131 2.76165 0.421178C2.23023 0.626436 1.74759 0.940515 1.34469 1.34326C0.941794 1.74601 0.627528 2.22854 0.422066 2.75987C0.18865 3.38153 0.0627502 4.03837 0.0497594 4.70226C0.0115513 5.55706 0 5.82807 0 7.99884C0 10.1687 -6.62029e-09 10.4451 0.0497594 11.2954C0.0630878 11.96 0.188375 12.6158 0.422066 13.2387C0.628106 13.7698 0.942674 14.2522 1.34567 14.6549C1.74867 15.0576 2.23124 15.3718 2.76254 15.5774C3.38225 15.8201 4.03884 15.9554 4.70404 15.9772C5.55973 16.0146 5.83074 16.0261 8.00065 16.0261C10.1705 16.0261 10.4486 16.0261 11.2972 15.9772C11.9611 15.9637 12.6178 15.8378 13.2396 15.6049C13.7707 15.399 14.2531 15.0845 14.6559 14.6817C15.0588 14.2788 15.3731 13.7964 15.5792 13.2653C15.8129 12.6434 15.9382 11.9876 15.9515 11.323C15.9897 10.4682 16.0013 10.1971 16.0013 8.02639C16.0013 5.85562 16.0013 5.58016 15.9515 4.72981C15.9411 4.05653 15.8146 3.39008 15.5774 2.75987ZM14.4951 11.2297C14.4894 11.7417 14.3959 12.249 14.2188 12.7295C14.0853 13.0751 13.8811 13.3889 13.619 13.6507C13.3571 13.9125 13.0431 14.1166 12.6976 14.2499C12.2224 14.4262 11.7204 14.5196 11.2137 14.5262C10.3696 14.5653 10.1314 14.5751 7.96688 14.5751C5.80053 14.5751 5.57927 14.5751 4.71915 14.5262C4.2126 14.52 3.71092 14.4265 3.23614 14.2499C2.88932 14.1175 2.57416 13.9137 2.31105 13.6518C2.04794 13.3899 1.84273 13.0757 1.7087 12.7295C1.53406 12.2542 1.44063 11.7528 1.43236 11.2465C1.39415 10.4024 1.38527 10.1643 1.38527 7.99973C1.38527 5.83429 1.38527 5.61304 1.43236 4.75202C1.43811 4.24024 1.53158 3.73322 1.7087 3.25302C1.97971 2.55195 2.53506 2.00015 3.23614 1.73181C3.71115 1.55599 4.21269 1.46254 4.71915 1.45546C5.56417 1.41725 5.80141 1.40659 7.96688 1.40659C10.1323 1.40659 10.3544 1.40659 11.2137 1.45546C11.7205 1.46156 12.2225 1.55504 12.6976 1.73181C13.0431 1.86534 13.357 2.06965 13.6189 2.33161C13.8809 2.59359 14.0852 2.90743 14.2188 3.25302C14.3934 3.72836 14.4868 4.22969 14.4951 4.73603C14.5333 5.58105 14.543 5.8183 14.543 7.98374C14.543 10.1483 14.543 10.3811 14.5049 11.2305H14.4951V11.2297Z" fill="white"/>
</svg>
