<svg width="24" height="24" viewBox="0 0 24 24" fill="none" xmlns="http://www.w3.org/2000/svg">
<path d="M16.8527 0H7.14728C5.25241 0.0022878 3.4358 0.756263 2.09592 2.09655C0.756037 3.43683 0.00228712 5.25398 0 7.14943V16.8506C0.00228712 18.746 0.756037 20.5632 2.09592 21.9035C3.4358 23.2437 5.25241 23.9977 7.14728 24H16.8527C18.7476 23.9977 20.5642 23.2437 21.9041 21.9035C23.244 20.5632 23.9977 18.746 24 16.8506V7.14943C23.9977 5.25398 23.244 3.43683 21.9041 2.09655C20.5642 0.756263 18.7476 0.0022878 16.8527 0ZM21.5873 16.8506C21.5869 18.1064 21.088 19.3107 20.2001 20.1985C19.3122 21.0864 18.1082 21.5852 16.8527 21.5852H7.14728C5.89159 21.5852 4.68732 21.0862 3.79941 20.198C2.9115 19.3098 2.41268 18.1052 2.41268 16.8491V7.14943C2.41306 5.8936 2.91205 4.68935 3.79992 3.80148C4.68779 2.91362 5.89183 2.41484 7.14728 2.41484H16.8527C18.1084 2.41484 19.3127 2.91381 20.2006 3.80199C21.0885 4.69017 21.5873 5.89479 21.5873 7.15087V16.8578V16.8506Z" fill="white"/>
<path d="M12 6C10.8133 6 9.65327 6.35189 8.66657 7.01118C7.67988 7.67047 6.91085 8.60753 6.45672 9.70389C6.0026 10.8002 5.88378 12.0067 6.11529 13.1705C6.3468 14.3344 6.91824 15.4035 7.75735 16.2426C8.59647 17.0818 9.66556 17.6532 10.8295 17.8847C11.9933 18.1162 13.1998 17.9974 14.2961 17.5433C15.3925 17.0891 16.3295 16.3201 16.9888 15.3334C17.6481 14.3467 18 13.1867 18 12C18 10.4087 17.3679 8.88257 16.2426 7.75735C15.1174 6.63214 13.5913 6 12 6ZM12 15.6657C11.275 15.6657 10.5662 15.4508 9.96342 15.048C9.36059 14.6452 8.89074 14.0726 8.61329 13.4028C8.33584 12.733 8.26326 11.9959 8.40471 11.2849C8.54615 10.5738 8.89528 9.9206 9.40794 9.40794C9.9206 8.89528 10.5738 8.54615 11.2849 8.40471C11.9959 8.26326 12.733 8.33584 13.4028 8.61329C14.0726 8.89074 14.6452 9.36059 15.048 9.96342C15.4508 10.5662 15.6657 11.275 15.6657 12C15.6657 12.9722 15.2795 13.9046 14.5921 14.5921C13.9046 15.2795 12.9722 15.6657 12 15.6657Z" fill="white"/>
</svg>
