<svg width="240" height="46" viewBox="0 0 240 46" fill="none" xmlns="http://www.w3.org/2000/svg">
<path d="M86.6796 8.15568H78.5817V31.8029H86.6796C90.3911 31.8029 93.3941 30.6543 95.7223 28.391C98.0166 26.1275 99.1638 23.3237 99.1638 19.9793C99.1638 16.6349 98.0166 13.831 95.7223 11.5676C93.3941 9.30426 90.3911 8.15568 86.6796 8.15568ZM86.6796 29.3707H81.281V10.588H86.6796C89.615 10.588 92.0107 11.5001 93.7989 13.2905C95.5873 15.0809 96.4645 17.3105 96.4645 19.9793C96.4645 22.6481 95.5873 24.8776 93.7989 26.6681C92.0107 28.4585 89.615 29.3707 86.6796 29.3707ZM103.124 24.5061H118.375C118.409 23.9993 118.443 23.6278 118.443 23.3575C118.443 20.8913 117.565 18.7632 115.845 17.0065C114.124 15.2498 112.032 14.3715 109.569 14.3715C107.038 14.3715 104.912 15.2498 103.124 17.0065C101.336 18.7632 100.459 20.8913 100.459 23.3575C100.459 25.8236 101.336 27.9517 103.124 29.7085C104.912 31.4651 107.038 32.3434 109.569 32.3434C111.256 32.3434 112.808 31.9043 114.191 31.0258C115.575 30.1475 116.654 28.9989 117.43 27.5464H114.495C113.246 29.2018 111.593 30.0463 109.569 30.0463C107.983 30.0463 106.566 29.5057 105.351 28.4585C104.136 27.4113 103.394 26.0937 103.124 24.5061ZM103.124 22.2088C103.394 20.6212 104.136 19.3036 105.351 18.2564C106.566 17.2092 107.983 16.6687 109.569 16.6687C111.121 16.6687 112.471 17.2092 113.651 18.2564C114.832 19.3036 115.541 20.6212 115.777 22.2088H103.124ZM131.899 14.912L126.331 28.695L120.73 14.912H118.098L125.083 31.8029H127.377L134.362 14.912H131.899ZM154.715 8.15568L148.169 22.0062L141.59 8.15568H135.888V31.8029H139.532V12.9527L146.212 26.6681H149.857L156.537 12.9527V31.8029H160.586V8.15568H154.715ZM177.392 14.912V17.547C175.806 15.4187 173.748 14.3715 171.183 14.3715C168.855 14.3715 166.797 15.2498 165.042 17.0065C163.288 18.7969 162.411 20.8913 162.411 23.3575C162.411 25.8236 163.288 27.918 165.042 29.6746C166.797 31.4651 168.855 32.3434 171.183 32.3434C173.748 32.3434 175.806 31.2962 177.392 29.1678V31.8029H180.799V14.912H177.392ZM171.622 28.8977C170.171 28.8977 168.923 28.3572 167.877 27.2761C166.831 26.1952 166.291 24.8776 166.291 23.3575C166.291 21.8373 166.831 20.5198 167.877 19.4388C168.923 18.3577 170.171 17.8172 171.622 17.8172C173.073 17.8172 174.355 18.3577 175.401 19.4388C176.447 20.5198 176.952 21.8373 176.952 23.3575C176.952 24.8776 176.447 26.1952 175.401 27.2761C174.355 28.3572 173.073 28.8977 171.622 28.8977ZM192.321 14.3715C190.163 14.3715 188.407 15.2161 187.059 16.8714V14.912H183.616V31.8029H187.497V21.1616C187.497 20.2496 187.902 19.4388 188.746 18.7969C189.554 18.155 190.534 17.8172 191.714 17.8172C192.558 17.8172 193.198 17.851 193.671 17.9524V14.5066C193.232 14.4053 192.794 14.3715 192.321 14.3715ZM194.912 31.8029H198.792V7.07466H194.912V31.8029ZM209.693 32.3434C212.224 32.3434 214.417 31.4651 216.205 29.7085C217.992 27.9517 218.871 25.8236 218.871 23.3575C218.871 20.8913 217.992 18.7632 216.205 17.0065C214.417 15.2498 212.224 14.3715 209.693 14.3715C207.162 14.3715 204.969 15.2498 203.181 17.0065C201.392 18.7632 200.481 20.8913 200.481 23.3575C200.481 25.8236 201.392 27.9517 203.181 29.7085C204.969 31.4651 207.162 32.3434 209.693 32.3434ZM209.693 28.8977C208.242 28.8977 206.993 28.3572 205.948 27.2761C204.902 26.1952 204.362 24.8776 204.362 23.3575C204.362 21.8373 204.902 20.5198 205.948 19.4388C206.993 18.3577 208.242 17.8172 209.693 17.8172C211.144 17.8172 212.427 18.3577 213.471 19.4388C214.518 20.5198 215.024 21.8373 215.024 23.3575C215.024 24.8776 214.518 26.1952 213.471 27.2761C212.427 28.3572 211.144 28.8977 209.693 28.8977ZM229.306 14.3715C227.146 14.3715 225.392 15.2161 224.042 16.8714V14.912H220.601V31.8029H224.479V21.1616C224.479 20.2496 224.885 19.4388 225.729 18.7969C226.539 18.155 227.517 17.8172 228.697 17.8172C229.879 17.8172 230.857 18.155 231.701 18.7969C232.544 19.4388 232.95 20.2496 232.95 21.1616V31.8029H236.795V20.8576C236.795 19.101 236.019 17.5808 234.501 16.2971C232.984 15.0134 231.228 14.3715 229.306 14.3715Z" fill="#F4FAFF"/>
<mask id="mask0_11_73" style="mask-type:luminance" maskUnits="userSpaceOnUse" x="0" y="3" width="62" height="38">
<path d="M61.7647 3.53366H0V40.637H61.7647V3.53366Z" fill="white"/>
</mask>
<g mask="url(#mask0_11_73)">
<path d="M46.2854 11.795L42.795 10.6355H42.6432L39.001 9.33106L40.5185 3.53366L32.6273 6.14249C32.4755 6.14249 32.3237 6.28742 32.172 6.43235C32.0202 6.5773 31.8684 6.72224 31.8684 6.86717L30.0474 13.969L29.8957 14.6937L26.2535 28.7523L18.9691 26.4333L6.37348 22.5202H6.22171L21.0938 17.7374L22.6113 11.795L23.2184 9.18613L18.9691 10.6355H18.8175L0.606742 16.5778C0.48835 16.5847 0.376685 16.6327 0.292815 16.7128C0.208944 16.7929 0.158669 16.8995 0.151474 17.0126C0.0307714 17.1827 -0.0229904 17.3881 -0.000281834 17.5924V26.4333C0.00999873 26.9535 0.191415 27.4574 0.518262 27.8736C0.845108 28.2899 1.30081 28.5973 1.82078 28.7523L16.9964 33.6801L18.9691 34.2598L24.2807 35.9991L23.0666 40.637L30.6545 38.3181H30.8063C31.1098 38.1732 31.2614 38.1732 31.4131 37.8832C31.573 37.7235 31.6787 37.5214 31.7167 37.3036L33.2343 31.3612L33.6896 29.6219L37.0283 16.5778L44.1607 18.8968L55.239 22.5202H55.0872L42.3397 26.7233L40.5185 33.6801L40.0634 35.1295L42.6432 34.2598L61.0057 28.3175C61.1361 28.2972 61.2592 28.247 61.365 28.1714C61.4707 28.0956 61.5557 27.9966 61.6127 27.8827C61.7334 27.7127 61.7871 27.5074 61.7645 27.303V18.4619C61.7541 17.9418 61.5727 17.4379 61.2458 17.0217C60.919 16.6055 60.4634 16.2981 59.9433 16.143L46.2854 11.795Z" fill="#F4FAFF"/>
</g>
</svg>
