<svg width="180" height="35" viewBox="0 0 180 35" fill="none" xmlns="http://www.w3.org/2000/svg">
<path d="M65.0097 6.11679H58.9363V23.8522H65.0097C67.7933 23.8522 70.0456 22.9907 71.7917 21.2933C73.5124 19.5956 74.3729 17.4928 74.3729 14.9845C74.3729 12.4762 73.5124 10.3733 71.7917 8.67576C70.0456 6.97823 67.7933 6.11679 65.0097 6.11679ZM65.0097 22.028H60.9608V7.94101H65.0097C67.2113 7.94101 69.0081 8.62509 70.3492 9.96791C71.6905 11.3107 72.3484 12.9829 72.3484 14.9845C72.3484 16.9861 71.6905 18.6583 70.3492 20.0011C69.0081 21.3439 67.2113 22.028 65.0097 22.028ZM77.3431 18.3796H88.7815C88.8068 17.9995 88.832 17.7209 88.832 17.5181C88.832 15.6685 88.1741 14.0724 86.8835 12.7549C85.5928 11.4374 84.0239 10.7787 82.1765 10.7787C80.2786 10.7787 78.6844 11.4374 77.3431 12.7549C76.0019 14.0724 75.3439 15.6685 75.3439 17.5181C75.3439 19.3677 76.0019 20.9638 77.3431 22.2814C78.6844 23.5988 80.2786 24.2576 82.1765 24.2576C83.4418 24.2576 84.606 23.9283 85.6435 23.2694C86.681 22.6107 87.4908 21.7492 88.0729 20.6599H85.8713C84.9349 21.9014 83.6949 22.5348 82.1765 22.5348C80.9872 22.5348 79.9244 22.1293 79.0133 21.3439C78.1023 20.5585 77.5456 19.5703 77.3431 18.3796ZM77.3431 16.6567C77.5456 15.4659 78.1023 14.4778 79.0133 13.6924C79.9244 12.9069 80.9872 12.5015 82.1765 12.5015C83.3407 12.5015 84.3529 12.9069 85.2386 13.6924C86.1244 14.4778 86.6558 15.4659 86.8328 16.6567H77.3431ZM98.924 11.1841L94.7485 21.5213L90.5477 11.1841H88.5738L93.8121 23.8522H95.5329L100.771 11.1841H98.924ZM116.036 6.11679L111.127 16.5047L106.193 6.11679H101.916V23.8522H104.649V9.71455L109.659 20.0011H112.392L117.403 9.71455V23.8522H120.44V6.11679H116.036ZM133.044 11.1841V13.1603C131.854 11.5641 130.311 10.7787 128.387 10.7787C126.641 10.7787 125.098 11.4374 123.782 12.7549C122.466 14.0977 121.808 15.6685 121.808 17.5181C121.808 19.3677 122.466 20.9385 123.782 22.256C125.098 23.5988 126.641 24.2576 128.387 24.2576C130.311 24.2576 131.854 23.4722 133.044 21.8759V23.8522H135.6V11.1841H133.044ZM128.716 21.6733C127.628 21.6733 126.692 21.268 125.908 20.4571C125.123 19.6464 124.718 18.6583 124.718 17.5181C124.718 16.378 125.123 15.3899 125.908 14.5791C126.692 13.7683 127.628 13.3629 128.716 13.3629C129.805 13.3629 130.766 13.7683 131.551 14.5791C132.335 15.3899 132.714 16.378 132.714 17.5181C132.714 18.6583 132.335 19.6464 131.551 20.4571C130.766 21.268 129.805 21.6733 128.716 21.6733ZM144.241 10.7787C142.622 10.7787 141.305 11.4121 140.294 12.6536V11.1841H137.712V23.8522H140.622V15.8713C140.622 15.1872 140.927 14.5791 141.559 14.0977C142.166 13.6163 142.9 13.3629 143.786 13.3629C144.418 13.3629 144.899 13.3883 145.253 13.4643V10.88C144.924 10.804 144.596 10.7787 144.241 10.7787ZM146.184 23.8522H149.094V5.30603H146.184V23.8522ZM157.27 24.2576C159.168 24.2576 160.813 23.5988 162.154 22.2814C163.494 20.9638 164.153 19.3677 164.153 17.5181C164.153 15.6685 163.494 14.0724 162.154 12.7549C160.813 11.4374 159.168 10.7787 157.27 10.7787C155.372 10.7787 153.727 11.4374 152.386 12.7549C151.044 14.0724 150.361 15.6685 150.361 17.5181C150.361 19.3677 151.044 20.9638 152.386 22.2814C153.727 23.5988 155.372 24.2576 157.27 24.2576ZM157.27 21.6733C156.182 21.6733 155.245 21.268 154.461 20.4571C153.676 19.6464 153.271 18.6583 153.271 17.5181C153.271 16.378 153.676 15.3899 154.461 14.5791C155.245 13.7683 156.182 13.3629 157.27 13.3629C158.358 13.3629 159.32 13.7683 160.103 14.5791C160.888 15.3899 161.268 16.378 161.268 17.5181C161.268 18.6583 160.888 19.6464 160.103 20.4571C159.32 21.268 158.358 21.6733 157.27 21.6733ZM171.979 10.7787C170.359 10.7787 169.044 11.4121 168.031 12.6536V11.1841H165.451V23.8522H168.36V15.8713C168.36 15.1872 168.664 14.5791 169.297 14.0977C169.904 13.6163 170.637 13.3629 171.523 13.3629C172.41 13.3629 173.143 13.6163 173.775 14.0977C174.408 14.5791 174.713 15.1872 174.713 15.8713V23.8522H177.597V15.6432C177.597 14.3258 177.014 13.1856 175.876 12.2228C174.738 11.2601 173.421 10.7787 171.979 10.7787Z" fill="#F4FAFF"/>
<mask id="mask0_31_189" style="mask-type:luminance" maskUnits="userSpaceOnUse" x="0" y="2" width="47" height="29">
<path d="M46.3235 2.65027H0V30.4778H46.3235V2.65027Z" fill="white"/>
</mask>
<g mask="url(#mask0_31_189)">
<path d="M34.7139 8.84624L32.0961 7.97663H31.9823L29.2506 6.99832L30.3887 2.65027L24.4703 4.60689C24.3565 4.60689 24.2427 4.71559 24.1288 4.82429C24.015 4.933 23.9012 5.0417 23.9012 5.1504L22.5354 10.4768L22.4216 11.0203L19.69 21.5642L14.2267 19.825L4.77999 16.8901H4.66616L15.8203 13.303L16.9584 8.84624L17.4137 6.88962L14.2267 7.97663H14.113L0.454935 12.4334C0.36614 12.4385 0.282391 12.4746 0.219489 12.5346C0.156586 12.5947 0.11888 12.6747 0.113484 12.7595C0.0229565 12.887 -0.0173648 13.0411 -0.000333446 13.1943V19.825C0.00737697 20.2151 0.143439 20.5931 0.388574 20.9053C0.633709 21.2175 0.975484 21.448 1.36547 21.5642L12.7472 25.2601L14.2267 25.6949L18.2104 26.9994L17.2998 30.4778L22.9907 28.7386H23.1046C23.3322 28.6299 23.4459 28.6299 23.5597 28.4125C23.6796 28.2927 23.7589 28.1411 23.7874 27.9777L24.9256 23.5209L25.2671 22.2165L27.7711 12.4334L33.1204 14.1726L41.4291 16.8901H41.3153L31.7546 20.0425L30.3887 25.2601L30.0474 26.3471L31.9823 25.6949L45.7541 21.2381C45.8519 21.2229 45.9443 21.1853 46.0236 21.1285C46.1029 21.0717 46.1667 20.9975 46.2094 20.912C46.2999 20.7845 46.3402 20.6306 46.3232 20.4772V13.8465C46.3154 13.4564 46.1794 13.0785 45.9343 12.7663C45.6891 12.4541 45.3474 12.2236 44.9574 12.1073L34.7139 8.84624Z" fill="#F4FAFF"/>
</g>
</svg>
