<svg width="1655" height="120" viewBox="0 0 1655 120" fill="none" xmlns="http://www.w3.org/2000/svg">
<rect x="29.5" y="50.5" width="19" height="19" stroke="white"/>
<rect x="34" y="55" width="10" height="10" fill="white"/>
<path d="M82.0323 66H74.7783V53.994H76.5783V64.416H82.0323V66ZM94.5548 66H92.5748L91.6028 63.516H85.7168L84.7448 66H82.7648L87.5348 53.994H89.7848L94.5548 66ZM91.0808 61.914L88.6508 55.56L86.2388 61.914H91.0808ZM106.183 66H104.437L97.7951 56.784V66H95.9951V53.994H97.8491L104.383 62.994V53.994H106.183V66ZM113.129 66H108.845V53.994H113.129C116.873 53.994 119.357 56.55 119.357 60.006C119.357 63.48 116.873 66 113.129 66ZM110.645 55.578V64.416H113.129C115.901 64.416 117.503 62.436 117.503 60.006C117.503 57.54 115.955 55.578 113.129 55.578H110.645ZM123.336 66H121.536V53.994H123.336V66ZM136.207 66H134.461L127.819 56.784V66H126.019V53.994H127.873L134.407 62.994V53.994H136.207V66ZM138.364 60.006C138.364 56.262 141.154 53.796 144.592 53.796C146.842 53.796 148.336 54.822 149.344 56.172L147.886 57.018C147.202 56.1 145.996 55.398 144.592 55.398C142.09 55.398 140.218 57.306 140.218 60.006C140.218 62.688 142.09 64.632 144.592 64.632C145.924 64.632 147.058 63.984 147.634 63.444V61.284H143.782V59.7H149.434V64.11C148.282 65.388 146.626 66.234 144.592 66.234C141.154 66.234 138.364 63.75 138.364 60.006ZM158.176 66H156.376V53.994H161.434C163.9 53.994 165.268 55.686 165.268 57.684C165.268 59.682 163.882 61.374 161.434 61.374H158.176V66ZM163.414 57.684C163.414 56.424 162.496 55.578 161.2 55.578H158.176V59.79H161.2C162.496 59.79 163.414 58.944 163.414 57.684ZM176.293 66H174.313L173.341 63.516H167.455L166.483 66H164.503L169.273 53.994H171.523L176.293 66ZM172.819 61.914L170.389 55.56L167.977 61.914H172.819ZM176.579 60.006C176.579 56.262 179.369 53.796 182.807 53.796C185.057 53.796 186.551 54.822 187.559 56.172L186.101 57.018C185.417 56.1 184.211 55.398 182.807 55.398C180.305 55.398 178.433 57.306 178.433 60.006C178.433 62.688 180.305 64.632 182.807 64.632C184.139 64.632 185.273 63.984 185.849 63.444V61.284H181.997V59.7H187.649V64.11C186.497 65.388 184.841 66.234 182.807 66.234C179.369 66.234 176.579 63.75 176.579 60.006ZM198.014 66H189.95V53.994H198.014V55.578H191.75V59.088H197.888V60.672H191.75V64.416H198.014V66ZM199.531 64.308L200.557 62.922C201.367 63.822 202.663 64.614 204.337 64.614C206.281 64.614 206.965 63.624 206.965 62.76C206.965 61.5 205.597 61.14 204.067 60.744C202.141 60.24 199.909 59.682 199.909 57.234C199.909 55.254 201.655 53.814 204.157 53.814C206.011 53.814 207.469 54.408 208.531 55.488L207.487 56.82C206.569 55.848 205.309 55.416 204.013 55.416C202.681 55.416 201.763 56.1 201.763 57.108C201.763 58.188 203.059 58.53 204.553 58.908C206.515 59.43 208.801 60.042 208.801 62.598C208.801 64.47 207.505 66.216 204.265 66.216C202.123 66.216 200.557 65.442 199.531 64.308Z" fill="white"/>
<rect x="234.5" y="50.5" width="19" height="19" stroke="white"/>
<rect x="239" y="55" width="10" height="10" fill="white"/>
<path d="M279.043 64.308L280.069 62.922C280.879 63.822 282.175 64.614 283.849 64.614C285.793 64.614 286.477 63.624 286.477 62.76C286.477 61.5 285.109 61.14 283.579 60.744C281.653 60.24 279.421 59.682 279.421 57.234C279.421 55.254 281.167 53.814 283.669 53.814C285.523 53.814 286.981 54.408 288.043 55.488L286.999 56.82C286.081 55.848 284.821 55.416 283.525 55.416C282.193 55.416 281.275 56.1 281.275 57.108C281.275 58.188 282.571 58.53 284.065 58.908C286.027 59.43 288.313 60.042 288.313 62.598C288.313 64.47 287.017 66.216 283.777 66.216C281.635 66.216 280.069 65.442 279.043 64.308ZM292.198 66H290.398V53.994H292.198V66ZM299.615 66H297.815V55.578H294.089V53.994H303.323V55.578H299.615V66ZM313.263 66H305.199V53.994H313.263V55.578H306.999V59.088H313.137V60.672H306.999V64.416H313.263V66ZM314.78 64.308L315.806 62.922C316.616 63.822 317.912 64.614 319.586 64.614C321.53 64.614 322.214 63.624 322.214 62.76C322.214 61.5 320.846 61.14 319.316 60.744C317.39 60.24 315.158 59.682 315.158 57.234C315.158 55.254 316.904 53.814 319.406 53.814C321.26 53.814 322.718 54.408 323.78 55.488L322.736 56.82C321.818 55.848 320.558 55.416 319.262 55.416C317.93 55.416 317.012 56.1 317.012 57.108C317.012 58.188 318.308 58.53 319.802 58.908C321.764 59.43 324.05 60.042 324.05 62.598C324.05 64.47 322.754 66.216 319.514 66.216C317.372 66.216 315.806 65.442 314.78 64.308ZM332.575 66H330.775V53.994H332.575V66ZM345.446 66H343.7L337.058 56.784V66H335.258V53.994H337.112L343.646 62.994V53.994H345.446V66ZM347.369 64.308L348.395 62.922C349.205 63.822 350.501 64.614 352.175 64.614C354.119 64.614 354.803 63.624 354.803 62.76C354.803 61.5 353.435 61.14 351.905 60.744C349.979 60.24 347.747 59.682 347.747 57.234C347.747 55.254 349.493 53.814 351.995 53.814C353.849 53.814 355.307 54.408 356.369 55.488L355.325 56.82C354.407 55.848 353.147 55.416 351.851 55.416C350.519 55.416 349.601 56.1 349.601 57.108C349.601 58.188 350.897 58.53 352.391 58.908C354.353 59.43 356.639 60.042 356.639 62.598C356.639 64.47 355.343 66.216 352.103 66.216C349.961 66.216 348.395 65.442 347.369 64.308ZM363.318 66H361.518V55.578H357.792V53.994H367.026V55.578H363.318V66ZM370.702 66H368.902V53.994H370.702V66ZM378.119 66H376.319V55.578H372.593V53.994H381.827V55.578H378.119V66ZM383.703 61.302V53.994H385.521V61.248C385.521 63.3 386.655 64.614 388.761 64.614C390.867 64.614 391.983 63.3 391.983 61.248V53.994H393.801V61.284C393.801 64.272 392.127 66.216 388.761 66.216C385.395 66.216 383.703 64.254 383.703 61.302ZM402.134 66.216C398.714 66.216 395.978 63.696 395.978 60.006C395.978 56.316 398.714 53.796 402.134 53.796C404.492 53.796 405.968 54.93 406.904 56.334L405.374 57.144C404.744 56.136 403.556 55.398 402.134 55.398C399.704 55.398 397.832 57.306 397.832 60.006C397.832 62.688 399.704 64.614 402.134 64.614C403.556 64.614 404.744 63.876 405.374 62.868L406.904 63.678C405.95 65.082 404.492 66.216 402.134 66.216ZM410.499 66H408.699V53.994H410.499V66ZM412.678 60.006C412.678 56.442 415.144 53.796 418.726 53.796C422.308 53.796 424.774 56.442 424.774 60.006C424.774 63.57 422.308 66.216 418.726 66.216C415.144 66.216 412.678 63.57 412.678 60.006ZM422.92 60.006C422.92 57.36 421.264 55.398 418.726 55.398C416.152 55.398 414.532 57.36 414.532 60.006C414.532 62.634 416.152 64.614 418.726 64.614C421.264 64.614 422.92 62.634 422.92 60.006ZM437.133 66H435.387L428.745 56.784V66H426.945V53.994H428.799L435.333 62.994V53.994H437.133V66ZM450.343 66H448.363L447.391 63.516H441.505L440.533 66H438.553L443.323 53.994H445.573L450.343 66ZM446.869 61.914L444.439 55.56L442.027 61.914H446.869ZM453.583 66H451.783V53.994H453.583V66ZM455.528 64.308L456.554 62.922C457.364 63.822 458.66 64.614 460.334 64.614C462.278 64.614 462.962 63.624 462.962 62.76C462.962 61.5 461.594 61.14 460.064 60.744C458.138 60.24 455.906 59.682 455.906 57.234C455.906 55.254 457.652 53.814 460.154 53.814C462.008 53.814 463.466 54.408 464.528 55.488L463.484 56.82C462.566 55.848 461.306 55.416 460.01 55.416C458.678 55.416 457.76 56.1 457.76 57.108C457.76 58.188 459.056 58.53 460.55 58.908C462.512 59.43 464.798 60.042 464.798 62.598C464.798 64.47 463.502 66.216 460.262 66.216C458.12 66.216 456.554 65.442 455.528 64.308Z" fill="white"/>
<rect x="490.5" y="50.5" width="19" height="19" stroke="white"/>
<rect x="495" y="55" width="10" height="10" fill="white"/>
<path d="M537.588 66H535.788V53.994H540.846C543.312 53.994 544.68 55.686 544.68 57.684C544.68 59.682 543.294 61.374 540.846 61.374H537.588V66ZM542.826 57.684C542.826 56.424 541.908 55.578 540.612 55.578H537.588V59.79H540.612C541.908 59.79 542.826 58.944 542.826 57.684ZM555.705 66H553.725L552.753 63.516H546.867L545.895 66H543.915L548.685 53.994H550.935L555.705 66ZM552.231 61.914L549.801 55.56L547.389 61.914H552.231ZM558.945 66H557.145V53.994H558.945V66ZM571.816 66H570.07L563.428 56.784V66H561.628V53.994H563.482L570.016 62.994V53.994H571.816V66ZM582.542 66H574.478V53.994H582.542V55.578H576.278V59.088H582.416V60.672H576.278V64.416H582.542V66ZM592.05 66H584.796V53.994H586.596V64.416H592.05V66ZM609.213 66H607.233L606.261 63.516H600.375L599.403 66H597.423L602.193 53.994H604.443L609.213 66ZM605.739 61.914L603.309 55.56L600.897 61.914H605.739ZM614.937 66H610.653V53.994H614.937C618.681 53.994 621.165 56.55 621.165 60.006C621.165 63.48 618.681 66 614.937 66ZM612.453 55.578V64.416H614.937C617.709 64.416 619.311 62.436 619.311 60.006C619.311 57.54 617.763 55.578 614.937 55.578H612.453ZM635.477 66H633.677V56.46L629.789 66H629.033L625.145 56.46V66H623.345V53.994H625.919L629.411 62.616L632.903 53.994H635.477V66ZM639.945 66H638.145V53.994H639.945V66ZM652.816 66H651.07L644.428 56.784V66H642.628V53.994H644.482L651.016 62.994V53.994H652.816V66ZM657.278 66H655.478V53.994H657.278V66ZM659.222 64.308L660.248 62.922C661.058 63.822 662.354 64.614 664.028 64.614C665.972 64.614 666.656 63.624 666.656 62.76C666.656 61.5 665.288 61.14 663.758 60.744C661.832 60.24 659.6 59.682 659.6 57.234C659.6 55.254 661.346 53.814 663.848 53.814C665.702 53.814 667.16 54.408 668.222 55.488L667.178 56.82C666.26 55.848 665 55.416 663.704 55.416C662.372 55.416 661.454 56.1 661.454 57.108C661.454 58.188 662.75 58.53 664.244 58.908C666.206 59.43 668.492 60.042 668.492 62.598C668.492 64.47 667.196 66.216 663.956 66.216C661.814 66.216 660.248 65.442 659.222 64.308ZM675.17 66H673.37V55.578H669.644V53.994H678.878V55.578H675.17V66ZM689.755 66H687.667L684.805 61.374H682.555V66H680.755V53.994H685.813C688.099 53.994 689.665 55.47 689.665 57.684C689.665 59.844 688.207 60.996 686.677 61.194L689.755 66ZM687.811 57.684C687.811 56.424 686.875 55.578 685.579 55.578H682.555V59.79H685.579C686.875 59.79 687.811 58.944 687.811 57.684ZM702.43 66H700.45L699.478 63.516H693.592L692.62 66H690.64L695.41 53.994H697.66L702.43 66ZM698.956 61.914L696.526 55.56L694.114 61.914H698.956ZM707.409 66H705.609V55.578H701.883V53.994H711.117V55.578H707.409V66ZM714.793 66H712.993V53.994H714.793V66ZM723.254 66H721.004L716.234 53.994H718.286L722.12 64.038L725.972 53.994H728.024L723.254 66ZM728.608 60.006C728.608 56.442 731.074 53.796 734.656 53.796C738.238 53.796 740.704 56.442 740.704 60.006C740.704 63.57 738.238 66.216 734.656 66.216C731.074 66.216 728.608 63.57 728.608 60.006ZM738.85 60.006C738.85 57.36 737.194 55.398 734.656 55.398C732.082 55.398 730.462 57.36 730.462 60.006C730.462 62.634 732.082 64.614 734.656 64.614C737.194 64.614 738.85 62.634 738.85 60.006Z" fill="white"/>
<rect x="766.5" y="50.5" width="19" height="19" stroke="white"/>
<rect x="771" y="55" width="10" height="10" fill="white"/>
<path d="M815.748 66H811.464V53.994H815.748C819.492 53.994 821.976 56.55 821.976 60.006C821.976 63.48 819.492 66 815.748 66ZM813.264 55.578V64.416H815.748C818.52 64.416 820.122 62.436 820.122 60.006C820.122 57.54 818.574 55.578 815.748 55.578H813.264ZM834.053 66H832.073L831.101 63.516H825.215L824.243 66H822.263L827.033 53.994H829.283L834.053 66ZM830.579 61.914L828.149 55.56L825.737 61.914H830.579ZM834.544 64.308L835.57 62.922C836.38 63.822 837.676 64.614 839.35 64.614C841.294 64.614 841.978 63.624 841.978 62.76C841.978 61.5 840.61 61.14 839.08 60.744C837.154 60.24 834.922 59.682 834.922 57.234C834.922 55.254 836.668 53.814 839.17 53.814C841.024 53.814 842.482 54.408 843.544 55.488L842.5 56.82C841.582 55.848 840.322 55.416 839.026 55.416C837.694 55.416 836.776 56.1 836.776 57.108C836.776 58.188 838.072 58.53 839.566 58.908C841.528 59.43 843.814 60.042 843.814 62.598C843.814 64.47 842.518 66.216 839.278 66.216C837.136 66.216 835.57 65.442 834.544 64.308ZM856.141 66H854.341V60.636H847.699V66H845.899V53.994H847.699V59.034H854.341V53.994H856.141V66ZM864.58 66H858.802V53.994H864.436C866.578 53.994 867.82 55.308 867.82 57.054C867.82 58.566 866.83 59.574 865.732 59.808C867.01 60.006 868.054 61.302 868.054 62.76C868.054 64.65 866.794 66 864.58 66ZM860.602 55.578V59.088H864.094C865.3 59.088 865.966 58.332 865.966 57.342C865.966 56.352 865.3 55.578 864.094 55.578H860.602ZM860.602 60.672V64.416H864.184C865.444 64.416 866.2 63.696 866.2 62.526C866.2 61.536 865.516 60.672 864.184 60.672H860.602ZM869.776 60.006C869.776 56.442 872.242 53.796 875.824 53.796C879.406 53.796 881.872 56.442 881.872 60.006C881.872 63.57 879.406 66.216 875.824 66.216C872.242 66.216 869.776 63.57 869.776 60.006ZM880.018 60.006C880.018 57.36 878.362 55.398 875.824 55.398C873.25 55.398 871.63 57.36 871.63 60.006C871.63 62.634 873.25 64.614 875.824 64.614C878.362 64.614 880.018 62.634 880.018 60.006ZM893.942 66H891.962L890.99 63.516H885.104L884.132 66H882.152L886.922 53.994H889.172L893.942 66ZM890.468 61.914L888.038 55.56L885.626 61.914H890.468ZM904.382 66H902.294L899.432 61.374H897.182V66H895.382V53.994H900.44C902.726 53.994 904.292 55.47 904.292 57.684C904.292 59.844 902.834 60.996 901.304 61.194L904.382 66ZM902.438 57.684C902.438 56.424 901.502 55.578 900.206 55.578H897.182V59.79H900.206C901.502 59.79 902.438 58.944 902.438 57.684ZM910.793 66H906.509V53.994H910.793C914.537 53.994 917.021 56.55 917.021 60.006C917.021 63.48 914.537 66 910.793 66ZM908.309 55.578V64.416H910.793C913.565 64.416 915.167 62.436 915.167 60.006C915.167 57.54 913.619 55.578 910.793 55.578H908.309Z" fill="white"/>
<rect x="942.5" y="50.5" width="19" height="19" stroke="white"/>
<rect x="947" y="55" width="10" height="10" fill="white"/>
<path d="M989.434 66H987.634V53.994H989.434V66ZM996.4 66H992.116V53.994H996.4C1000.14 53.994 1002.63 56.55 1002.63 60.006C1002.63 63.48 1000.14 66 996.4 66ZM993.916 55.578V64.416H996.4C999.172 64.416 1000.77 62.436 1000.77 60.006C1000.77 57.54 999.226 55.578 996.4 55.578H993.916ZM1012.87 66H1004.81V53.994H1012.87V55.578H1006.61V59.088H1012.75V60.672H1006.61V64.416H1012.87V66ZM1025.31 66H1023.57L1016.93 56.784V66H1015.13V53.994H1016.98L1023.51 62.994V53.994H1025.31V66ZM1032.71 66H1030.91V55.578H1027.18V53.994H1036.42V55.578H1032.71V66ZM1040.09 66H1038.29V53.994H1040.09V66ZM1047.06 66H1042.78V53.994H1047.06C1050.8 53.994 1053.29 56.55 1053.29 60.006C1053.29 63.48 1050.8 66 1047.06 66ZM1044.58 55.578V64.416H1047.06C1049.83 64.416 1051.43 62.436 1051.43 60.006C1051.43 57.54 1049.89 55.578 1047.06 55.578H1044.58ZM1065.37 66H1063.39L1062.41 63.516H1056.53L1055.56 66H1053.58L1058.35 53.994H1060.6L1065.37 66ZM1061.89 61.914L1059.46 55.56L1057.05 61.914H1061.89ZM1071.09 66H1066.81V53.994H1071.09C1074.83 53.994 1077.32 56.55 1077.32 60.006C1077.32 63.48 1074.83 66 1071.09 66ZM1068.61 55.578V64.416H1071.09C1073.86 64.416 1075.46 62.436 1075.46 60.006C1075.46 57.54 1073.92 55.578 1071.09 55.578H1068.61ZM1087.56 66H1079.5V53.994H1087.56V55.578H1081.3V59.088H1087.44V60.672H1081.3V64.416H1087.56V66ZM1100.23 66H1097.98L1093.21 53.994H1095.27L1099.1 64.038L1102.95 53.994H1105L1100.23 66ZM1108.24 66H1106.44V53.994H1108.24V66ZM1110.19 64.308L1111.21 62.922C1112.02 63.822 1113.32 64.614 1114.99 64.614C1116.94 64.614 1117.62 63.624 1117.62 62.76C1117.62 61.5 1116.25 61.14 1114.72 60.744C1112.8 60.24 1110.57 59.682 1110.57 57.234C1110.57 55.254 1112.31 53.814 1114.81 53.814C1116.67 53.814 1118.13 54.408 1119.19 55.488L1118.14 56.82C1117.23 55.848 1115.97 55.416 1114.67 55.416C1113.34 55.416 1112.42 56.1 1112.42 57.108C1112.42 58.188 1113.72 58.53 1115.21 58.908C1117.17 59.43 1119.46 60.042 1119.46 62.598C1119.46 64.47 1118.16 66.216 1114.92 66.216C1112.78 66.216 1111.21 65.442 1110.19 64.308ZM1121.54 61.302V53.994H1123.36V61.248C1123.36 63.3 1124.5 64.614 1126.6 64.614C1128.71 64.614 1129.82 63.3 1129.82 61.248V53.994H1131.64V61.284C1131.64 64.272 1129.97 66.216 1126.6 66.216C1123.24 66.216 1121.54 64.254 1121.54 61.302ZM1144.36 66H1142.38L1141.41 63.516H1135.52L1134.55 66H1132.57L1137.34 53.994H1139.59L1144.36 66ZM1140.89 61.914L1138.46 55.56L1136.05 61.914H1140.89ZM1153.06 66H1145.8V53.994H1147.6V64.416H1153.06V66Z" fill="white"/>
<rect x="1178.5" y="50.5" width="19" height="19" stroke="white"/>
<rect x="1183" y="55" width="10" height="10" fill="white"/>
<path d="M1229.23 66H1223.45V53.994H1229.09C1231.23 53.994 1232.47 55.308 1232.47 57.054C1232.47 58.566 1231.48 59.574 1230.38 59.808C1231.66 60.006 1232.71 61.302 1232.71 62.76C1232.71 64.65 1231.45 66 1229.23 66ZM1225.25 55.578V59.088H1228.75C1229.95 59.088 1230.62 58.332 1230.62 57.342C1230.62 56.352 1229.95 55.578 1228.75 55.578H1225.25ZM1225.25 60.672V64.416H1228.84C1230.1 64.416 1230.85 63.696 1230.85 62.526C1230.85 61.536 1230.17 60.672 1228.84 60.672H1225.25ZM1242.19 66H1234.93V53.994H1236.73V64.416H1242.19V66ZM1243.08 60.006C1243.08 56.442 1245.54 53.796 1249.12 53.796C1252.71 53.796 1255.17 56.442 1255.17 60.006C1255.17 63.57 1252.71 66.216 1249.12 66.216C1245.54 66.216 1243.08 63.57 1243.08 60.006ZM1253.32 60.006C1253.32 57.36 1251.66 55.398 1249.12 55.398C1246.55 55.398 1244.93 57.36 1244.93 60.006C1244.93 62.634 1246.55 64.614 1249.12 64.614C1251.66 64.614 1253.32 62.634 1253.32 60.006ZM1256.84 60.006C1256.84 56.262 1259.63 53.796 1263.07 53.796C1265.32 53.796 1266.81 54.822 1267.82 56.172L1266.36 57.018C1265.68 56.1 1264.47 55.398 1263.07 55.398C1260.57 55.398 1258.69 57.306 1258.69 60.006C1258.69 62.688 1260.57 64.632 1263.07 64.632C1264.4 64.632 1265.53 63.984 1266.11 63.444V61.284H1262.26V59.7H1267.91V64.11C1266.76 65.388 1265.1 66.234 1263.07 66.234C1259.63 66.234 1256.84 63.75 1256.84 60.006Z" fill="white"/>
<rect x="1293.5" y="50.5" width="19" height="19" stroke="white"/>
<rect x="1298" y="55" width="10" height="10" fill="white"/>
<path d="M1345.84 66H1338.58V53.994H1340.38V64.416H1345.84V66ZM1346.73 60.006C1346.73 56.442 1349.19 53.796 1352.77 53.796C1356.36 53.796 1358.82 56.442 1358.82 60.006C1358.82 63.57 1356.36 66.216 1352.77 66.216C1349.19 66.216 1346.73 63.57 1346.73 60.006ZM1356.97 60.006C1356.97 57.36 1355.31 55.398 1352.77 55.398C1350.2 55.398 1348.58 57.36 1348.58 60.006C1348.58 62.634 1350.2 64.614 1352.77 64.614C1355.31 64.614 1356.97 62.634 1356.97 60.006ZM1360.49 60.006C1360.49 56.262 1363.28 53.796 1366.72 53.796C1368.97 53.796 1370.46 54.822 1371.47 56.172L1370.01 57.018C1369.33 56.1 1368.12 55.398 1366.72 55.398C1364.22 55.398 1362.34 57.306 1362.34 60.006C1362.34 62.688 1364.22 64.632 1366.72 64.632C1368.05 64.632 1369.18 63.984 1369.76 63.444V61.284H1365.91V59.7H1371.56V64.11C1370.41 65.388 1368.75 66.234 1366.72 66.234C1363.28 66.234 1360.49 63.75 1360.49 60.006ZM1373.36 60.006C1373.36 56.442 1375.82 53.796 1379.41 53.796C1382.99 53.796 1385.45 56.442 1385.45 60.006C1385.45 63.57 1382.99 66.216 1379.41 66.216C1375.82 66.216 1373.36 63.57 1373.36 60.006ZM1383.6 60.006C1383.6 57.36 1381.94 55.398 1379.41 55.398C1376.83 55.398 1375.21 57.36 1375.21 60.006C1375.21 62.634 1376.83 64.614 1379.41 64.614C1381.94 64.614 1383.6 62.634 1383.6 60.006ZM1399.76 66H1397.96V56.46L1394.07 66H1393.31L1389.42 56.46V66H1387.62V53.994H1390.2L1393.69 62.616L1397.18 53.994H1399.76V66ZM1412.97 66H1410.99L1410.02 63.516H1404.14L1403.16 66H1401.18L1405.95 53.994H1408.2L1412.97 66ZM1409.5 61.914L1407.07 55.56L1404.66 61.914H1409.5ZM1423.41 66H1421.33L1418.46 61.374H1416.21V66H1414.41V53.994H1419.47C1421.76 53.994 1423.32 55.47 1423.32 57.684C1423.32 59.844 1421.87 60.996 1420.34 61.194L1423.41 66ZM1421.47 57.684C1421.47 56.424 1420.53 55.578 1419.24 55.578H1416.21V59.79H1419.24C1420.53 59.79 1421.47 58.944 1421.47 57.684ZM1431.19 66.216C1427.77 66.216 1425.04 63.696 1425.04 60.006C1425.04 56.316 1427.77 53.796 1431.19 53.796C1433.55 53.796 1435.03 54.93 1435.96 56.334L1434.43 57.144C1433.8 56.136 1432.61 55.398 1431.19 55.398C1428.76 55.398 1426.89 57.306 1426.89 60.006C1426.89 62.688 1428.76 64.614 1431.19 64.614C1432.61 64.614 1433.8 63.876 1434.43 62.868L1435.96 63.678C1435.01 65.082 1433.55 66.216 1431.19 66.216ZM1448.24 66H1446.26L1445.28 63.516H1439.4L1438.43 66H1436.45L1441.22 53.994H1443.47L1448.24 66ZM1444.76 61.914L1442.33 55.56L1439.92 61.914H1444.76ZM1448.73 64.308L1449.75 62.922C1450.56 63.822 1451.86 64.614 1453.53 64.614C1455.48 64.614 1456.16 63.624 1456.16 62.76C1456.16 61.5 1454.79 61.14 1453.26 60.744C1451.34 60.24 1449.1 59.682 1449.1 57.234C1449.1 55.254 1450.85 53.814 1453.35 53.814C1455.21 53.814 1456.66 54.408 1457.73 55.488L1456.68 56.82C1455.76 55.848 1454.5 55.416 1453.21 55.416C1451.88 55.416 1450.96 56.1 1450.96 57.108C1450.96 58.188 1452.25 58.53 1453.75 58.908C1455.71 59.43 1458 60.042 1458 62.598C1458 64.47 1456.7 66.216 1453.46 66.216C1451.32 66.216 1449.75 65.442 1448.73 64.308Z" fill="white"/>
<rect x="1483.5" y="50.5" width="19" height="19" stroke="white"/>
<rect x="1488" y="55" width="10" height="10" fill="white"/>
<path d="M1539.6 66H1537.67L1535.17 56.73L1532.69 66H1530.76L1527.32 53.994H1529.34L1531.82 63.624L1534.45 53.994H1535.91L1538.52 63.624L1541 53.994H1543.02L1539.6 66ZM1543.68 60.006C1543.68 56.442 1546.15 53.796 1549.73 53.796C1553.31 53.796 1555.78 56.442 1555.78 60.006C1555.78 63.57 1553.31 66.216 1549.73 66.216C1546.15 66.216 1543.68 63.57 1543.68 60.006ZM1553.93 60.006C1553.93 57.36 1552.27 55.398 1549.73 55.398C1547.16 55.398 1545.54 57.36 1545.54 60.006C1545.54 62.634 1547.16 64.614 1549.73 64.614C1552.27 64.614 1553.93 62.634 1553.93 60.006ZM1566.95 66H1564.86L1562 61.374H1559.75V66H1557.95V53.994H1563.01C1565.3 53.994 1566.86 55.47 1566.86 57.684C1566.86 59.844 1565.4 60.996 1563.87 61.194L1566.95 66ZM1565.01 57.684C1565.01 56.424 1564.07 55.578 1562.78 55.578H1559.75V59.79H1562.78C1564.07 59.79 1565.01 58.944 1565.01 57.684ZM1573.36 66H1569.08V53.994H1573.36C1577.11 53.994 1579.59 56.55 1579.59 60.006C1579.59 63.48 1577.11 66 1573.36 66ZM1570.88 55.578V64.416H1573.36C1576.14 64.416 1577.74 62.436 1577.74 60.006C1577.74 57.54 1576.19 55.578 1573.36 55.578H1570.88ZM1583.57 66H1581.77V53.994H1586.83C1589.29 53.994 1590.66 55.686 1590.66 57.684C1590.66 59.682 1589.28 61.374 1586.83 61.374H1583.57V66ZM1588.81 57.684C1588.81 56.424 1587.89 55.578 1586.59 55.578H1583.57V59.79H1586.59C1587.89 59.79 1588.81 58.944 1588.81 57.684ZM1601.51 66H1599.42L1596.56 61.374H1594.31V66H1592.51V53.994H1597.57C1599.85 53.994 1601.42 55.47 1601.42 57.684C1601.42 59.844 1599.96 60.996 1598.43 61.194L1601.51 66ZM1599.57 57.684C1599.57 56.424 1598.63 55.578 1597.33 55.578H1594.31V59.79H1597.33C1598.63 59.79 1599.57 58.944 1599.57 57.684ZM1611.7 66H1603.64V53.994H1611.7V55.578H1605.44V59.088H1611.58V60.672H1605.44V64.416H1611.7V66ZM1613.22 64.308L1614.24 62.922C1615.05 63.822 1616.35 64.614 1618.02 64.614C1619.97 64.614 1620.65 63.624 1620.65 62.76C1620.65 61.5 1619.28 61.14 1617.75 60.744C1615.83 60.24 1613.6 59.682 1613.6 57.234C1613.6 55.254 1615.34 53.814 1617.84 53.814C1619.7 53.814 1621.16 54.408 1622.22 55.488L1621.17 56.82C1620.26 55.848 1619 55.416 1617.7 55.416C1616.37 55.416 1615.45 56.1 1615.45 57.108C1615.45 58.188 1616.75 58.53 1618.24 58.908C1620.2 59.43 1622.49 60.042 1622.49 62.598C1622.49 64.47 1621.19 66.216 1617.95 66.216C1615.81 66.216 1614.24 65.442 1613.22 64.308ZM1623.84 64.308L1624.86 62.922C1625.67 63.822 1626.97 64.614 1628.64 64.614C1630.59 64.614 1631.27 63.624 1631.27 62.76C1631.27 61.5 1629.9 61.14 1628.37 60.744C1626.45 60.24 1624.21 59.682 1624.21 57.234C1624.21 55.254 1625.96 53.814 1628.46 53.814C1630.32 53.814 1631.77 54.408 1632.84 55.488L1631.79 56.82C1630.87 55.848 1629.61 55.416 1628.32 55.416C1626.99 55.416 1626.07 56.1 1626.07 57.108C1626.07 58.188 1627.36 58.53 1628.86 58.908C1630.82 59.43 1633.11 60.042 1633.11 62.598C1633.11 64.47 1631.81 66.216 1628.57 66.216C1626.43 66.216 1624.86 65.442 1623.84 64.308Z" fill="white"/>
</svg>
