<svg width="24" height="25" viewBox="0 0 24 25" fill="none" xmlns="http://www.w3.org/2000/svg">
<path d="M0 24.1145L1.69505 17.9221C0.649083 16.1095 0.0994725 14.0548 0.100477 11.9478C0.103492 5.36046 5.46395 0 12.0502 0C15.2464 0.00100477 18.2467 1.24592 20.5034 3.50465C22.7591 5.76338 24.001 8.76564 24 11.9588C23.997 18.5471 18.6365 23.9076 12.0502 23.9076C10.0507 23.9066 8.08038 23.4052 6.33509 22.4526L0 24.1145ZM6.62848 20.2894C8.31248 21.2891 9.92012 21.888 12.0462 21.889C17.5202 21.889 21.9794 17.4338 21.9824 11.9568C21.9844 6.46873 17.5463 2.01959 12.0543 2.01758C6.57624 2.01758 2.12007 6.47275 2.11806 11.9488C2.11706 14.1844 2.77217 15.8583 3.87239 17.6096L2.86863 21.2751L6.62848 20.2894ZM18.0698 14.7993C17.9955 14.6747 17.7965 14.6003 17.4971 14.4506C17.1987 14.3009 15.7307 13.5785 15.4564 13.479C15.1831 13.3796 14.9842 13.3293 14.7842 13.6287C14.5853 13.9272 14.0126 14.6003 13.8387 14.7993C13.6649 14.9982 13.4901 15.0234 13.1917 14.8736C12.8932 14.7239 11.9307 14.4094 10.7903 13.3916C9.90304 12.5998 9.30319 11.6222 9.12936 11.3228C8.95554 11.0244 9.11128 10.8626 9.25998 10.7139C9.39462 10.5803 9.5584 10.3652 9.70811 10.1904C9.85983 10.0176 9.90907 9.89299 10.0095 9.69304C10.109 9.4941 10.0598 9.31927 9.98443 9.16955C9.90907 9.02085 9.31223 7.55087 9.06405 6.95303C8.8209 6.37126 8.57473 6.44963 8.39186 6.44059L7.81914 6.43054C7.6202 6.43054 7.29666 6.5049 7.02336 6.80432C6.75006 7.10374 5.9784 7.82517 5.9784 9.29515C5.9784 10.7651 7.04848 12.1849 7.19719 12.3838C7.3469 12.5828 9.30218 15.5991 12.2974 16.8922C13.0098 17.1997 13.5664 17.3836 13.9995 17.5212C14.7149 17.7483 15.366 17.7161 15.8804 17.6398C16.4542 17.5544 17.6468 16.9174 17.896 16.22C18.1452 15.5217 18.1452 14.9239 18.0698 14.7993Z" fill="white"/>
</svg>
