<svg width="20" height="20" viewBox="0 0 20 20" fill="none" xmlns="http://www.w3.org/2000/svg">
<g clip-path="url(#clip0_31_800)">
<path d="M0.0474854 19.1256L1.39186 14.2143C0.562283 12.7767 0.126379 11.1471 0.127175 9.47595C0.129566 4.25147 4.38103 0 9.60472 0C12.1397 0.000796901 14.5192 0.988157 16.3091 2.77959C18.0981 4.57102 19.0831 6.95217 19.0823 9.48472C19.0799 14.71 14.8284 18.9615 9.60472 18.9615C8.01889 18.9607 6.45616 18.563 5.07195 17.8076L0.0474854 19.1256ZM5.30464 16.0918C6.64025 16.8847 7.91529 17.3597 9.60153 17.3605C13.9431 17.3605 17.4797 13.827 17.4821 9.48312C17.4837 5.13045 13.9638 1.60177 9.60791 1.60018C5.2632 1.60018 1.72895 5.13364 1.72735 9.47675C1.72656 11.2499 2.24614 12.5775 3.11874 13.9665L2.32264 16.8736L5.30464 16.0918ZM14.379 11.7376C14.32 11.6387 14.1622 11.5798 13.9247 11.461C13.688 11.3423 12.5238 10.7693 12.3062 10.6904C12.0895 10.6115 11.9317 10.5717 11.7731 10.8092C11.6153 11.0458 11.1611 11.5798 11.0232 11.7376C10.8853 11.8953 10.7467 11.9153 10.51 11.7965C10.2733 11.6778 9.50989 11.4284 8.60541 10.6211C7.90174 9.99314 7.42599 9.21776 7.28813 8.98028C7.15027 8.7436 7.27378 8.6153 7.39173 8.49736C7.49851 8.39137 7.62841 8.22083 7.74714 8.08217C7.86748 7.9451 7.90652 7.84629 7.98621 7.68771C8.06511 7.52992 8.02606 7.39126 7.96629 7.27252C7.90652 7.15458 7.43317 5.98871 7.23633 5.51456C7.04348 5.05315 6.84824 5.11531 6.7032 5.10814L6.24897 5.10017C6.09118 5.10017 5.83458 5.15914 5.61782 5.39661C5.40107 5.63409 4.78905 6.20627 4.78905 7.37213C4.78905 8.538 5.63775 9.66402 5.75569 9.82181C5.87443 9.97959 7.4252 12.3719 9.80076 13.3975C10.3658 13.6414 10.8072 13.7872 11.1507 13.8964C11.7181 14.0765 12.2345 14.051 12.6425 13.9904C13.0975 13.9227 14.0435 13.4174 14.2411 12.8644C14.4387 12.3105 14.4387 11.8364 14.379 11.7376Z" fill="white"/>
</g>
<defs>
<clipPath id="clip0_31_800">
<rect width="20" height="20" fill="white"/>
</clipPath>
</defs>
</svg>
