<svg width="144" height="144" viewBox="0 0 144 144" fill="none" xmlns="http://www.w3.org/2000/svg">
<g filter="url(#filter0_d_200_250)">
<circle cx="68" cy="64" r="32" fill="#1F9C68"/>
<g clip-path="url(#clip0_200_250)">
<path d="M52.8325 77.1771L54.8299 69.8803C53.5974 67.7445 52.9497 65.3232 52.9509 62.8405C52.9545 55.0784 59.2709 48.7619 67.0318 48.7619C70.798 48.7631 74.3334 50.23 76.9926 52.8916C79.6506 55.5531 81.114 59.0908 81.1128 62.8535C81.1092 70.6168 74.7927 76.9332 67.0318 76.9332C64.6757 76.932 62.354 76.3412 60.2974 75.2188L52.8325 77.1771ZM60.6432 72.6698C62.6275 73.8478 64.5218 74.5534 67.0271 74.5546C73.4774 74.5546 78.7318 69.3049 78.7354 62.8511C78.7377 56.3843 73.5081 51.1417 67.0366 51.1393C60.5816 51.1393 55.3307 56.389 55.3283 62.8416C55.3271 65.476 56.0991 67.4485 57.3955 69.5121L56.2127 73.8312L60.6432 72.6698ZM74.125 66.2006C74.0374 66.0537 73.803 65.9661 73.4501 65.7897C73.0985 65.6133 71.3687 64.762 71.0455 64.6448C70.7235 64.5276 70.489 64.4684 70.2534 64.8212C70.019 65.1729 69.3441 65.9661 69.1393 66.2006C68.9345 66.435 68.7285 66.4646 68.3768 66.2882C68.0252 66.1118 66.8909 65.7412 65.5471 64.5418C64.5017 63.6089 63.7949 62.4569 63.59 62.104C63.3852 61.7524 63.5687 61.5618 63.744 61.3865C63.9026 61.2291 64.0956 60.9757 64.272 60.7697C64.4508 60.5661 64.5088 60.4192 64.6272 60.1836C64.7444 59.9492 64.6864 59.7432 64.5976 59.5668C64.5088 59.3916 63.8055 57.6594 63.5131 56.955C63.2266 56.2694 62.9365 56.3618 62.721 56.3511L62.0462 56.3393C61.8117 56.3393 61.4305 56.4269 61.1085 56.7797C60.7864 57.1326 59.8771 57.9826 59.8771 59.7148C59.8771 61.4469 61.1381 63.1199 61.3133 63.3543C61.4897 63.5887 63.7937 67.143 67.3231 68.6668C68.1625 69.0291 68.8184 69.2457 69.3287 69.4079C70.1717 69.6755 70.9389 69.6376 71.5451 69.5476C72.2212 69.447 73.6265 68.6964 73.9202 67.8747C74.2138 67.0518 74.2138 66.3474 74.125 66.2006Z" fill="white"/>
</g>
</g>
<defs>
<filter id="filter0_d_200_250" x="0" y="0" width="144" height="144" filterUnits="userSpaceOnUse" color-interpolation-filters="sRGB">
<feFlood flood-opacity="0" result="BackgroundImageFix"/>
<feColorMatrix in="SourceAlpha" type="matrix" values="0 0 0 0 0 0 0 0 0 0 0 0 0 0 0 0 0 0 127 0" result="hardAlpha"/>
<feOffset dx="4" dy="8"/>
<feGaussianBlur stdDeviation="20"/>
<feComposite in2="hardAlpha" operator="out"/>
<feColorMatrix type="matrix" values="0 0 0 0 0.105882 0 0 0 0 0.105882 0 0 0 0 0.105882 0 0 0 0.5 0"/>
<feBlend mode="normal" in2="BackgroundImageFix" result="effect1_dropShadow_200_250"/>
<feBlend mode="normal" in="SourceGraphic" in2="effect1_dropShadow_200_250" result="shape"/>
</filter>
<clipPath id="clip0_200_250">
<rect width="29.7143" height="29.7143" fill="white" transform="translate(52.762 48.7619)"/>
</clipPath>
</defs>
</svg>
