<svg width="140" height="24" viewBox="0 0 140 24" fill="none" xmlns="http://www.w3.org/2000/svg">
<path fill-rule="evenodd" clip-rule="evenodd" d="M90.4939 5.31407C92.1223 5.31407 93.5709 5.72142 94.8114 6.5264L95.0739 6.70431V5.63295H99.8406V22.8155H95.0739V21.89C93.8061 22.8107 92.2672 23.2763 90.4949 23.2763C88.0177 23.2763 85.6941 22.3382 83.951 20.6339C82.2127 18.9355 81.2551 16.6771 81.2551 14.2777C81.2519 13.0915 81.4892 11.917 81.9525 10.825C82.4159 9.73307 83.0957 8.74634 83.951 7.92441C85.6883 6.24057 88.0119 5.31407 90.4939 5.31407ZM130.649 5.31407C132.278 5.31407 133.726 5.72142 134.967 6.5264L135.229 6.70431V5.63295H139.996V22.8155H135.229V21.89C133.962 22.8107 132.423 23.2763 130.65 23.2763C128.173 23.2763 125.85 22.3382 124.107 20.6339C122.368 18.9355 121.412 16.6771 121.412 14.2777C121.408 13.0916 121.645 11.9171 122.109 10.8251C122.572 9.73319 123.251 8.74642 124.107 7.92441C125.844 6.24154 128.167 5.31407 130.649 5.31407ZM112.172 5.31407C114.206 5.31407 115.939 5.93238 117.184 7.10291C118.539 8.37648 119.256 10.2217 119.318 12.588L119.323 12.9293V22.8155H114.557V13.639C114.557 12.206 114.205 11.1677 113.511 10.5542C112.964 10.07 112.208 9.83478 111.2 9.83478C110.189 9.83478 109.431 10.0632 108.888 10.5328C108.241 11.0928 107.892 12.0193 107.849 13.29L107.844 13.568V22.8155H103.077V5.63295H107.844V6.71014L108.118 6.51862L108.409 6.32807C109.268 5.79336 110.393 5.31407 112.172 5.31407ZM62.238 5.31407V9.83478H62.0679C59.3904 9.83478 57.7046 10.1857 56.7636 10.9402C56.0179 11.5381 55.6893 12.3965 55.6553 13.8694L55.6523 14.1358V22.8155H50.8857V5.63295H55.6523V6.71695C57.1592 5.701 58.7225 5.34129 61.7033 5.31601L62.238 5.31407ZM5.33249 5.63295L8.67393 16.3368L12.5724 5.63295H16.6984L20.5269 16.3339L23.9024 5.63295H29.2718L22.9953 22.8155H18.3657L14.6383 12.413L11.0509 22.8155H6.20261L0 5.63295H5.33249ZM69.7113 0.663086L69.686 12.8739L75.2275 6.09669H81.6197L74.5926 14.4556L81.68 22.7553H75.2586L69.8094 15.4735L69.7113 22.7553H64.93V0.663086H69.7113ZM130.649 9.8338C128.187 9.8338 126.105 11.8686 126.105 14.2767C126.105 15.4541 126.58 16.5731 127.441 17.4266C127.862 17.8481 128.363 18.1823 128.913 18.4104C129.464 18.6384 130.054 18.7557 130.649 18.7556C131.863 18.7585 133.028 18.2806 133.89 17.4266C134.754 16.574 135.229 15.456 135.229 14.2767C135.229 13.114 134.753 12.0067 133.89 11.1599C133.026 10.3083 131.862 9.83179 130.649 9.8338ZM90.4939 9.8338C88.0313 9.8338 85.9498 11.8686 85.9498 14.2767C85.9498 15.4541 86.4243 16.5731 87.2856 17.4266C87.7069 17.8481 88.207 18.1823 88.7575 18.4104C89.308 18.6384 89.898 18.7557 90.4939 18.7556C91.7072 18.7584 92.8722 18.2805 93.7342 17.4266C94.5985 16.574 95.0739 15.456 95.0739 14.2767C95.0739 13.114 94.5975 12.0067 93.7342 11.1599C92.8709 10.3083 91.7065 9.83179 90.4939 9.8338Z" fill="white"/>
<path fill-rule="evenodd" clip-rule="evenodd" d="M38.8013 9.18266C40.1976 8.38756 41.7774 7.97099 43.3842 7.97422C44.1278 7.97396 44.8687 8.06274 45.5911 8.23866C44.7268 7.30061 43.6768 6.55252 42.508 6.04189C41.3391 5.53126 40.0768 5.26925 38.8013 5.27249C37.5258 5.26925 36.2635 5.53126 35.0946 6.04189C33.9257 6.55252 32.8758 7.30061 32.0115 8.23866C32.7342 8.06266 33.4755 7.97388 34.2193 7.97422C35.8886 7.97422 37.4538 8.41462 38.8013 9.18266Z" fill="white"/>
<path fill-rule="evenodd" clip-rule="evenodd" d="M30 11.7852C29.7592 12.6031 29.6371 13.4514 29.6373 14.3041C29.6373 18.5429 32.5996 22.0982 36.5934 23.0723C35.0861 21.4421 34.2404 19.3087 34.2212 17.0885C32.1818 15.932 30.6691 14.0321 30 11.7852Z" fill="white"/>
<path fill-rule="evenodd" clip-rule="evenodd" d="M34.2213 17.0885L34.2193 17.0068C34.2193 13.6625 36.0626 10.7449 38.8013 9.18258C37.4053 8.38764 35.8258 7.97108 34.2193 7.97414C33.4581 7.97414 32.7192 8.0665 32.0124 8.23857C31.0788 9.25059 30.3902 10.4637 30 11.7842C30.669 14.0309 32.1823 15.9317 34.2213 17.0885Z" fill="white"/>
<path fill-rule="evenodd" clip-rule="evenodd" d="M43.3833 17.0885C43.364 19.3088 42.5179 21.4423 41.0101 23.0723C45.0039 22.0982 47.9662 18.5419 47.9662 14.3041C47.9662 13.4291 47.8398 12.5843 47.6036 11.7842C46.9346 14.0309 45.4222 15.9317 43.3833 17.0885Z" fill="white"/>
<path fill-rule="evenodd" clip-rule="evenodd" d="M43.3842 7.97414C41.7774 7.97096 40.1976 8.38752 38.8013 9.18258C41.5409 10.7449 43.3842 13.6634 43.3842 17.0068L43.3832 17.0885C45.4222 15.9317 46.9345 14.0309 47.6035 11.7842C47.2133 10.4637 46.5248 9.25059 45.5911 8.23858C44.8686 8.06265 44.1277 7.97388 43.3842 7.97414Z" fill="white"/>
<mask id="mask0_33_886" style="mask-type:luminance" maskUnits="userSpaceOnUse" x="34" y="17" width="10" height="7">
<path d="M34.2213 17.0884H43.3833V23.3367H34.2213V17.0884Z" fill="white"/>
</mask>
<g mask="url(#mask0_33_886)">
<path fill-rule="evenodd" clip-rule="evenodd" d="M38.8023 18.2968C37.1961 18.2997 35.6171 17.8832 34.2213 17.0884C34.2407 19.3087 35.0868 21.4421 36.5944 23.0722C38.045 23.4264 39.5596 23.4264 41.0102 23.0722C42.5179 21.4422 43.364 19.3087 43.3833 17.0884C41.9875 17.8832 40.4085 18.2997 38.8023 18.2968Z" fill="white"/>
</g>
</svg>
